<svg id="Layer_1" enable-background="new 0 0 66 66" height="512" viewBox="0 0 66 66" width="512" xmlns="http://www.w3.org/2000/svg"><g><path d="m17.886 64.957 30.112-1.396c8.81-.408 10.942-3.227 10.927-11.079l-.08-40.837c-.015-8.071-2.445-10.838-11.248-10.624-28.547.733-24.274.215-25.991 1.62-4.882 3.992-9.931 8.121-14.007 13.04-.069.083-.109.186-.114.294-.663 13.477-.522 27.137.419 40.601.45 6.41 2.483 8.726 9.982 8.381zm9.579-1.604c.098.098.256.098.354 0s.098-.256 0-.354l-.143-.143 1.197-1.197.99.99-.598.598c-.051.051-.072.118-.07.184l-2.195.102.324-.324zm8.188-.99-.746-.746 1.119-1.119.99.989-1.347 1.347c-.082.082-.08.202-.023.298l-1.791.083c.035-.09.035-.19-.038-.262l-.123-.123.86-.86.746.746c.098.098.256.098.354 0 .097-.097.097-.256-.001-.353zm2.959.013-.889-.889 1.041-1.041 1.248 1.248-.882.882c-.098.098-.098.256 0 .354.025.025.06.025.09.037l-3.122.145 1.271-1.271.889.889c.098.098.256.098.354 0s.098-.256 0-.354zm2.077-.005c.098.098.256.098.354 0s.098-.256 0-.354l-.323-.323.938-.938 1.248 1.248-.572.572c-.069.069-.071.162-.043.249l-2.875.133c.023-.012.05-.01.069-.028l.882-.882zm2.543-3.19 1.248 1.248-1.222 1.222-1.248-1.248zm.026 3.177.363.363c.026.026.061.027.093.039l-.899.042zm-9.864.88-.112.005.058-.058zm-.618-.197c-.063.063-.07.147-.052.227l-2.908.135.574-.574c.001-.001.002 0 .003-.001s0-.002.001-.003l1.293-1.293 1.299 1.299zm15.176-.478-4.05.188c.024-.012.052-.01.072-.03.098-.098.098-.256 0-.354l-.363-.363 1.222-1.222 1.041 1.041-.34.34c-.098.098-.098.256 0 .354s.256.098.354 0l.374-.374c.086.024.143.047.238-.048.066-.066.071-.155.048-.238l1.591-1.591 1.509 1.509c.098.098.256.098.353 0 .084-.084.081-.206.021-.303.089.032.154.062.256-.04l1.218-1.218 1.281 1.281c.098.098.256.098.354 0s.098-.256 0-.354l-1.281-1.281 1.65-1.65 1.17 1.17-.87.872c-.098.098-.098.256 0 .354s.256.098.354 0l.872-.872.639.639c.012.012.029.009.043.018-1.91 1.734-4.861 2.038-7.756 2.172zm-1.723-1.093-1.041-1.041 1.558-1.558 1.041 1.041zm4.915-1.609-1.218 1.218c-.057.057-.071.131-.062.205l-1.371-1.371 1.351-1.351zm-.946-1.653 1.65-1.651 1.299 1.299-1.65 1.65zm3.657-.351 1.21-1.21 1.17 1.17-1.21 1.21zm4.051-15.09c-.002-.005-.003-.01-.006-.015l.006.006zm.001.195.003 1.417-.687-.687.651-.651c.022-.022.021-.052.033-.079zm.008 4.012-.618-.618.615-.615zm.006 3.018-.58-.58.536-.536c.028-.028.03-.066.042-.1zm-.022-10.789-.056-.056.012-.012c.03-.03.033-.07.045-.107zm-10.277-37.182c8.264-.219 10.208 2.161 10.223 9.626l.053 27.241c-.012-.037-.015-.077-.044-.106-.098-.098-.256-.098-.354 0l-.011.011-.03-.03c-.098-.098-.256-.098-.354 0s-.098.256 0 .354l.03.03-.03.03c-.098.098-.098.256 0 .354s.256.098.354 0l.03-.03.411.411.004 2.138-.656-.656.572-.573c.098-.098.098-.256 0-.354s-.256-.098-.354 0l-.723.724c-.098.098-.098.256 0 .354.003.003.008.002.011.005.012.034.014.071.041.099l1.013 1.013c-.095-.051-.209-.053-.289.027l-.651.651-.236-.236c-.098-.098-.256-.098-.354 0s-.098.256 0 .354l.236.236-.236.236c-.098.098-.098.256 0 .354s.256.098.354 0l.236-.236 1.042 1.042v.042c-.058.004-.117.022-.161.067l-.806.806-.36-.36c-.098-.098-.256-.098-.354 0s-.098.256 0 .354l.36.36-.259.259c-.098.098-.098.256 0 .353.098.098.256.098.354 0l.259-.259.973.973.002.939c-.012-.034-.014-.072-.041-.099-.098-.098-.256-.098-.354 0l-.536.536-.404-.404c-.098-.098-.256-.098-.354 0s-.098.256 0 .354l.404.404-.509.509c-.098.098-.098.256 0 .354s.256.098.354 0l.509-.509.752.753c.049.049.113.073.177.073.002 0 .004-.002.006-.002l.004 1.896c.001.272-.002.542-.005.811-.065-.001-.131.022-.18.072l-.249.249-.55-.55.728-.728c.098-.098.098-.256 0-.354s-.256-.098-.354 0l-.728.728-.815-.815c-.098-.098-.256-.098-.354 0s-.098.256 0 .353l.815.815-1.246 1.245c-.098.098-.098.256 0 .354s.256.098.354 0l1.246-1.245.55.55-.91.91c-.098.098-.098.256 0 .354s.256.098.354 0l.947-.947c.083.018.137.037.227-.052.063-.063.07-.146.052-.227l.099-.099c-.064 2.297-.348 4.531-1.867 6.164-.01-.017-.007-.038-.022-.053l-.639-.639 1.255-1.255c.009.001.016.01.025.01.064 0 .128-.024.177-.073.098-.098.098-.256 0-.354l-1.416-1.416.435-.435c.098-.098.098-.256 0-.354s-.256-.098-.354 0l-.435.435-1.262-1.262c-.098-.098-.256-.098-.354 0s-.098.256 0 .354l1.262 1.262-1.21 1.21-1.3-1.3.847-.847c.098-.098.098-.256 0-.354s-.256-.098-.353 0l-.847.847-.246-.246c-.098-.098-.256-.098-.354 0s-.098.256 0 .354l.246.246-1.65 1.651-.857-.857c-.098-.098-.256-.098-.354 0s-.098.256 0 .354l.857.857-1.351 1.351-1.041-1.041 1.464-1.465c.098-.098.098-.256 0-.354s-.256-.098-.354 0l-1.464 1.464-.392-.392c-.098-.098-.256-.098-.354 0s-.098.256 0 .353l.392.392-1.558 1.558-1.248-1.248.351-.351c.098-.098.098-.256 0-.354s-.256-.098-.354 0l-.403.404c-.064 0-.127.024-.176.073s-.073.112-.073.176l-1.274 1.275-.159-.159c-.098-.098-.256-.098-.354 0s-.098.256 0 .354l.159.159-.938.938-1.248-1.248 1.033-1.033c.098-.098.098-.256 0-.354s-.256-.098-.353 0l-1.074 1.074c-.076-.012-.154-.001-.213.058s-.07.137-.058.213l-1.082 1.082-.989-.989.397-.397c.098-.098.098-.256 0-.354s-.256-.098-.353 0l-1.87 1.869-.65-.65c-.098-.098-.256-.098-.354 0s-.098.256 0 .354l.65.65-.86.86-1.299-1.299.798-.798c.098-.098.098-.256 0-.354s-.256-.098-.354 0l-.798.798-.004-.004c-.098-.098-.256-.098-.354 0s-.098.256 0 .354l.004.004-1.118 1.118-.989-.99.215-.215c.098-.098.098-.256 0-.354s-.256-.098-.354 0l-1.765 1.765-.649-.65c-.098-.098-.256-.098-.354 0s-.098.256 0 .354l.65.65-.701.701c-.003.003-.001.007-.004.01l-8.423.39c-6.84.317-8.519-1.486-8.938-7.452-.927-13.254-1.074-26.697-.442-39.966l9.34.259c4.615.125 5.675-1.493 5.715-4.918l.112-9.245zm-36.102 12.649.89.891c.083.083.199.106.323.013-.019.026-.027.055-.035.085l-2.048-.057-.03-.03zm3.095.518-.404-.404 1.123-1.123.926.926-1.139 1.139-1.802-.05.538-.538.404.404c.098.098.256.098.354 0 .097-.098.097-.256 0-.354zm4.388-.483-1.077-1.078.581-.581 1.295 1.295-1.466 1.466c-.169 0-.338-.002-.507-.007h-.012c.002-.002.005-.001.006-.003.098-.098.098-.256 0-.354l-.857-.857.606-.606 1.077 1.078c.098.098.256.098.354 0 .098-.097.098-.255 0-.353zm3.175-1.008-.512-.512.491-.491c.098-.098.098-.256 0-.353-.098-.098-.256-.098-.354 0l-.491.491-.909-.909c.124.093.24.07.323-.013l1.029-1.029.416.416c.097.097.254.098.353 0l-.007.574c-.018 1.516-.12 2.619-1.167 3.311l-.841-.841.803-.803.512.512c.098.098.256.098.354 0 .097-.097.097-.256 0-.353zm.404-7.224-.424-.424.435-.435zm-1.693 8.955c-.532.223-1.159.33-1.831.365l1.098-1.098zm-3.426.363-1.654-.046.804-.804zm5.16-12.691-.022 1.798-.797.797-.192-.192c-.098-.098-.256-.098-.354 0s-.098.256 0 .354l.193.192-.094.094c-.098.098-.098.256 0 .353.098.098.256.098.354 0l.094-.094.513.512c.103.103.169.073.26.039l-.008.678c-.092-.041-.198-.042-.273.033l-.269.269-.367-.363c-.098-.098-.256-.098-.354 0s-.098.256 0 .354l.365.365-.709.709c-.098.098-.098.256 0 .353.098.098.256.098.354 0l.709-.709.02.02c.098.098.256.098.354 0s.098-.256 0-.353l-.02-.02.183-.183-.035 2.846c-.002-.002-.001-.006-.003-.008l-.416-.416.253-.253c.098-.098.098-.256 0-.354s-.256-.098-.354 0l-.253.253-.487-.488c-.098-.098-.256-.098-.354 0s-.098.256 0 .354l.487.488-1.029 1.029c-.089.089-.086.225-.013.323l-.47-.47c-.098-.098-.256-.098-.354 0s-.098.256 0 .354l1.422 1.422-.803.803-1.295-1.295.405-.405c.098-.098.098-.256 0-.354s-.256-.098-.354 0l-.406.406c-.098-.092-.251-.093-.347.003s-.095.249-.003.347l-.583.583-.192-.192c-.098-.098-.256-.098-.354 0s-.098.256 0 .354l.192.192-.606.606-.926-.926.624-.624c.098-.098.098-.256 0-.354s-.256-.098-.354 0l-2.101 2.1-.758-.758c-.098-.098-.256-.098-.354 0s-.098.256 0 .353l.758.758-.714.714c.052-.095.054-.211-.026-.291l-.89-.891 1.397-1.397c.098-.098.098-.256 0-.354s-.256-.098-.354 0l-1.419 1.419c-.093-.044-.201-.045-.278.031-.077.077-.075.185-.032.278l-.924.924-.02-.02c-.098-.098-.256-.098-.353 0-.098.098-.098.256 0 .353l.02.02-.009.009-.868-.021c4.018-4.652 8.911-8.626 13.593-12.457z"/><path d="m13.992 40.78c-.195.195-.195.512 0 .707s.512.195.707 0l11.396-11.396 7.611 7.611c.188.188.52.188.707 0l12.633-12.633 1.988 1.988c.255.254.687.164.818-.17.8-2.018 1.523-4.477 2.147-7.307.083-.378-.277-.702-.642-.584-2.384.77-4.402 2.464-6.713 2.464-.445 0-.667.54-.354.854l2.047 2.047-12.279 12.28-7.611-7.611c-.195-.195-.512-.195-.707 0zm36.825-20.514c-.486 2.062-1.038 3.948-1.622 5.538l-3.447-3.447c1.812-.332 3.406-1.388 5.069-2.091z"/><path d="m48.837 30.688c-.276 0-.5.224-.5.5v21.902c0 .276.224.5.5.5s.5-.224.5-.5v-21.902c0-.276-.224-.5-.5-.5z"/><path d="m40.542 39.14c-.276 0-.5.224-.5.5v14.43c0 .276.224.5.5.5s.5-.224.5-.5v-14.43c0-.276-.224-.5-.5-.5z"/><path d="m33.42 42.662c-.276 0-.5.224-.5.5v10.75c0 .276.224.5.5.5s.5-.224.5-.5v-10.75c0-.277-.224-.5-.5-.5z"/><path d="m25.829 37.184c-.276 0-.5.224-.5.5v16.338c0 .276.224.5.5.5s.5-.224.5-.5v-16.338c0-.277-.223-.5-.5-.5z"/><path d="m17.691 44.696c-.276 0-.5.224-.5.5v8.943c0 .276.224.5.5.5s.5-.224.5-.5v-8.943c0-.276-.224-.5-.5-.5z"/><path d="m32.173 15.139-1.665 1.665c-.098.098-.098.256 0 .354s.256.098.353 0l1.665-1.665 1.861 1.861c.007.053.02.106.061.147.041.04.094.054.147.061l.334.334c.098.098.256.098.354 0s.098-.256 0-.353l-.261-.261 2.131-2.131 1.511 1.511c.098.098.256.098.354 0s.098-.256 0-.354l-1.511-1.511.846-.846 2.271 2.271c.098.098.256.098.354 0s.098-.256 0-.354l-2.271-2.271.589-.589 1.794 1.794c.098.098.256.098.354 0s.098-.256 0-.354l-1.794-1.794.64-.64c.098-.098.098-.256 0-.354s-.256-.098-.354 0l-.64.64-.38-.38c-.098-.098-.256-.098-.354 0s-.098.256 0 .354l.38.38-.589.589-1.788-1.788.883-.883c.098-.098.098-.256 0-.354s-.256-.098-.354 0l-.883.883-1.151-1.151c-.098-.098-.256-.098-.354 0s-.098.256 0 .354l1.151 1.151-.846.846-1.494-1.494c-.098-.098-.256-.098-.354 0s-.098.256 0 .353l1.494 1.494-.932.932-1.237-1.237c-.098-.098-.256-.098-.354 0s-.098.256 0 .354l1.237 1.237-.846.846-2.351-2.351c-.098-.098-.256-.098-.353 0-.098.098-.098.256 0 .354zm4.038-3.331 1.788 1.788-.846.846-1.788-1.788zm-2.485 2.485.993.993c.098.098.256.098.354 0s.098-.256 0-.353l-.993-.993.932-.932 1.789 1.788-2.131 2.131-1.788-1.788z"/></g></svg>