<svg id="Layer_1" enable-background="new 0 0 66 66" height="512" viewBox="0 0 66 66" width="512" xmlns="http://www.w3.org/2000/svg"><g><path d="m20.738 48.862c-.087-4.638-1.341-7.245-6.368-7.183-2.086.024-6.97.082-8.387.3-1.736.268-3.189 1.112-3.986 2.319-.934 1.414-.947 3.187-.957 4.612l-.038 5.569c-.034 4.558 1.645 5.586 5.164 5.398l9.401-.503c4.09-.219 5.34-1.56 5.262-5.644zm-5.223 9.514-9.401.503c-2.895.153-4.141-.388-4.111-4.393l.038-5.57c.015-2.191.006-5.319 4.096-5.949 1.347-.207 6.359-.266 8.246-.288 4.372-.055 5.278 2.019 5.356 6.202l.091 4.869c.066 3.514-.764 4.435-4.315 4.626z"/><path d="m42.799 47.519c-.015-2.706-.03-5.413-.045-6.226-.087-4.636-1.357-7.245-6.369-7.183-2.086.024-6.97.082-8.386.3-1.737.268-3.19 1.112-3.987 2.319-.936 1.416-.946 3.188-.956 4.61-.007.954-.014 3.906-.02 6.804-.006 2.741-.013 5.433-.019 6.336-.031 4.539 1.626 5.586 5.165 5.397l9.4-.503c4.084-.219 5.338-1.552 5.263-5.644-.016-.809-.031-3.509-.046-6.21zm-5.27 10.857-9.4.503c-2.888.151-4.139-.376-4.112-4.393.006-.903.013-3.598.019-6.341.007-2.895.014-5.845.02-6.799.015-2.184-.001-5.318 4.096-5.948 1.346-.207 6.358-.266 8.245-.288 4.373-.055 5.279 2.022 5.357 6.202.016.811.03 3.511.046 6.212.015 2.706.03 5.413.045 6.225.063 3.48-.72 4.434-4.316 4.627z"/><path d="m64.904 28.045c-.085-4.535-1.307-7.248-6.354-7.184-2.089.024-6.98.083-8.4.301-1.735.266-3.188 1.111-3.986 2.319-.934 1.413-.947 3.186-.957 4.61-.012 1.947-.025 24.632-.038 26.387-.033 4.538 1.624 5.587 5.164 5.398l9.401-.503c4.09-.219 5.34-1.56 5.262-5.644-.03-1.511-.062-24.021-.092-25.684zm-14.626 30.834c-.889.047-1.738.05-2.429-.216l1.505-1.505 1.427 1.427c.049.049.112.073.177.073.064 0 .128-.024.177-.073.098-.098.098-.256 0-.354l-1.427-1.426 1.656-1.656 1.466 1.465-.78.781c-.098.098-.098.256 0 .354.049.049.112.073.177.073.064 0 .128-.025.177-.073l.78-.781 1.666 1.665c.001.001.002 0 .003.001zm7.109-6.195 1.474 1.474-1.688 1.688-1.433-1.433 1.592-1.592c.036-.038.046-.088.055-.137zm-.569 3.516-.493.493c-.098.098-.098.256 0 .354.049.049.112.073.177.073s.128-.024.177-.073l.493-.493 1.858 1.858-3.819.204c.083-.098.086-.243-.007-.336l-1.666-1.665 1.848-1.848zm2.863 2.176-.188.01c.033-.089.033-.188-.039-.259l-1.929-1.927 1.688-1.688 1.465 1.465-.653.652c-.098.098-.098.256 0 .354.049.049.112.073.177.073.063 0 .128-.024.177-.073l.653-.652 1.483 1.483c-.786.412-1.82.508-2.834.562zm3.513-1.072c-.086.093-.182.175-.282.252-.012-.031-.013-.066-.038-.091l-1.489-1.489 1.019-1.019.182.182c.049.049.112.073.177.073s.128-.024.177-.073c.098-.098.098-.256 0-.354l-.182-.182.998-.997c.098-.098.098-.256 0-.354-.097-.098-.255-.098-.354 0l-.998.997-3.429-3.429c-.098-.098-.256-.098-.354 0s-.098.256 0 .354l3.429 3.429-1.019 1.019-1.465-1.465.699-.699c.098-.098.098-.256 0-.354s-.256-.098-.354 0l-.699.699-2.854-2.854c-.098-.098-.256-.098-.354 0s-.098.256 0 .354l1.107 1.107c-.049.009-.099.019-.137.057l-1.592 1.592-1.256-1.259c-.098-.098-.256-.098-.354 0s-.098.256 0 .354l1.259 1.259-1.848 1.848-1.466-1.465 1.947-1.947c.098-.098.098-.256 0-.354s-.256-.098-.354 0l-3.957 3.956-.653-.653c-.098-.098-.256-.098-.354 0s-.098.256 0 .354l.653.653-1.622 1.622c-1.147-.782-1.222-2.523-1.211-3.94.012-1.947.025-24.633.038-26.388.015-2.18.003-5.32 4.096-5.948 1.35-.207 6.37-.267 8.261-.289 4.456-.057 5.267 2.202 5.342 6.203.02 1.015.041 11.483.059 17.917l-.918-.918.356-.354c.098-.098.098-.256 0-.354s-.256-.098-.354 0l-.355.355-.589-.589c-.098-.098-.256-.098-.354 0s-.098.256 0 .354l.589.589-.844.844c-.098.098-.098.256 0 .354.049.049.112.073.177.073.064 0 .128-.024.177-.073l.844-.844 1.259 1.259c.004.004.01.002.014.006.004 1.512.008 2.896.013 4.036l-2.305-2.305.575-.575c.098-.098.098-.256 0-.354s-.256-.098-.354 0l-.575.575-.748-.749c-.098-.098-.256-.098-.354 0s-.098.256 0 .354l.748.749-1.274 1.274-.78-.78c-.098-.098-.256-.098-.354 0s-.098.256 0 .354l.78.78-.334.334c-.098.098-.098.256 0 .354.049.049.112.073.177.073.064 0 .128-.024.177-.073l.334-.334 1.401 1.401-.365.365c-.098.098-.098.256 0 .354.049.049.112.073.177.073s.128-.024.177-.073l.365-.365 1.166 1.166c.049.049.112.073.177.073.064 0 .128-.024.177-.073.098-.098.098-.256 0-.354l-1.166-1.166 1.274-1.274.717.717c.049.049.112.073.177.073.004 0 .008-.005.012-.005.005 1.275.01 2.167.015 2.443.027 1.331-.014 2.702-.8 3.552zm-.473-7.135-1.274 1.274-1.401-1.401 1.274-1.274z"/><path d="m62.956 13.737c.198-.192.203-.509.012-.707-.688-.71-1.448-1.486-2.041-2.077l.25-3.561c.05.003.099.004.151.008.014.001.027.002.042.002.257 0 .476-.197.497-.459.023-.275-.182-.517-.457-.539-.129-.011-2.919-.156-3.055-.169-.278-.017-.518.178-.543.453-.024.275.178.518.453.543.05.004.104.006.156.009-.011.193-.039.671-.058 1.036-.357-.371-.524-.54-.903-.941-1.449-1.449-2.77-1.929-5.089.274-1.948 1.85-3.692 3.824-5.184 5.866-.162.224-.113.536.109.699.221.16.533.117.699-.109.059-.081.124-.159.184-.24l-.165 2.887c-.072 1.3.395 1.971 2.001 2.012l8.282.207c2.163.044 3.162-.587 3.119-2.83l-.067-3.293c.299.306.599.607.898.916.195.199.512.205.709.013zm-3.538-6.44s.759.039.761.039l-.186 2.637c-.226-.236-.454-.473-.683-.709.037-.588.075-1.395.108-1.967zm-6.104 9.523 1.011 1.012-1.458-.036c.062-.097.065-.222-.02-.306l-.232-.232.632-.632c-.004.07.014.14.067.194zm-.877.965-.339-.008.165-.165zm5.91-2.573c.047-.047.068-.108.07-.169l.863.863-.875.875-.813-.814zm-.295 1.923-.56.56c-.059.059-.07.138-.057.215l-.33-.008c.086-.098.088-.246-.006-.34l-.55-.55.691-.691zm-1.331.757-1.028-.026.501-.501zm1.603.04-.354-.009.435-.435.441.441c-.171.007-.345.007-.522.003zm1.15-.082-.715-.716.875-.875.107.107c.096.096.255.099.354 0 .098-.098.098-.256 0-.354l-.108-.108.212-.212c.098-.098.098-.256 0-.354-.204-.204-.371.018-.566.212l-1.113-1.112c-.099-.099-.257-.097-.354 0-.096.096-.095.25-.002.348-.062.002-.124.024-.172.071l-.755.755-.314-.314c-.097-.097-.255-.099-.354 0-.098.098-.098.256 0 .353l.314.315-.691.691-.99-.99c-.098-.098-.256-.098-.354 0s-.098.256 0 .354l.99.99-.806.806c-.009.009-.006.022-.013.032l-.32-.008c.091-.098.092-.25-.004-.345l-1.029-1.03c-.053-.053-.124-.071-.195-.065l1.671-1.672c.098-.098.098-.256 0-.354s-.256-.098-.354 0l-2.528 2.529-.622-.622c-.099-.098-.257-.098-.354 0-.098.098-.098.256 0 .354l.622.622-.501.501-1.366-.034c-1.019-.026-1.069-.226-1.028-.955l.249-4.338c1.15-1.414 2.42-2.788 3.799-4.098 2.012-1.914 2.72-1.265 3.72-.265.062.066 3.425 3.575 3.548 3.699l.055 2.692c-.012-.036-.014-.076-.043-.105l-.63-.63.484-.484c.098-.098.098-.256 0-.354s-.256-.098-.354 0l-.484.484-.468-.468c-.098-.098-.256-.098-.353 0-.098.098-.098.256 0 .354l.468.468-.284.284c-.098.098-.098.256 0 .353.097.097.255.098.353 0l.284-.284.63.63c.097.097.255.098.354 0 .031-.031.035-.073.046-.112l.031 1.524c.021.949-.035 1.522-.942 1.73z"/><path d="m7.636 24.792c-.217-.031-.437.081-.53.282-.094.202-.044.441.124.588 4.516 3.95 10.678 3.109 16.396 1.552 2.488-.688 5.1-1.54 7.342-3.112 1.382-.959 2.548-2.212 3.326-3.568.586.33 1.197.646 1.826.945 2.302 1.077 3.967.03 3.271-3.118-.507-2.194-.995-4.389-1.482-6.582-.822-3.768-2.469-4.296-5.613-3.473-7.08 1.948-8.97 1.622-9.238 3.307-.173 1.003.738 1.886 2.231 3.003-3.016 7.399-10.93 11.225-17.653 10.176zm22.76-1.511c-2.12 1.487-4.634 2.306-7.034 2.968-.687.187-1.388.368-2.098.534l1.58-1.581.515.515c.097.097.255.098.354 0 .098-.098.098-.256 0-.354l-.515-.515 1.226-1.227 1.452 1.452c.097.097.255.098.354 0 .074-.075.074-.178.035-.27.021-.011.046-.009.064-.026l2.07-2.07.77.77c-.067.097-.07.226.017.313.097.097.255.098.354 0l1.822-1.822c.059-.003.118-.022.163-.067s.064-.104.067-.163l1.029-1.029.17.17c.015.015.036.012.053.022-.661.892-1.489 1.715-2.448 2.38zm-.887-.169-.758-.758 1.435-1.435.757.758zm-3.326-9.084c-4.598-3.224-1.462-2.607 6.372-4.757 2.622-.689 3.687-.433 4.377 2.722.456 2.051.914 4.102 1.385 6.149l-.899-.899.247-.247c.098-.098.098-.256 0-.354-.099-.099-.257-.097-.354 0l-.247.247-.909-.909c-.099-.099-.257-.097-.354 0-.098.098-.098.256 0 .354l.91.909-1.177 1.177-.955-.955.079-.079c.098-.098.098-.256 0-.354s-.256-.098-.353 0l-.101.101c-.093-.044-.201-.046-.278.031s-.075.185-.031.278l-1.253 1.253c-.098.098-.098.256 0 .354.097.097.255.098.354 0l1.231-1.231 1.013 1.013c.002.061.023.122.07.169.047.046.108.068.168.07l1.592 1.592c.097.097.255.098.354 0 .098-.098.098-.256 0-.354l-1.535-1.535 1.177-1.177.911.91c.118.118.333.112.399-.11.193.838.485 2.094-.341 2.457-.388.182-.945-.027-1.486-.281-.764-.361-1.502-.753-2.195-1.161-.245-.144-.568-.057-.701.207-.151.302-.333.597-.526.889l-.174-.174c.045-.093.047-.203-.03-.28s-.187-.076-.28-.03l-1.186-1.186c-.098-.098-.256-.098-.354 0s-.098.256 0 .354l1.164 1.164-.968.968-.757-.758.309-.309c.098-.098.098-.256 0-.354s-.256-.098-.354 0l-.309.309-.318-.318c-.098-.098-.256-.098-.354 0s-.098.256 0 .354l.318.318-1.435 1.435-.786-.786c-.097-.097-.256-.099-.354 0-.098.098-.098.256 0 .354l.786.786-2.07 2.07c-.008.008-.005.02-.012.029l-1.186-1.185 1.766-1.766c.098-.098.098-.256 0-.354s-.256-.098-.354 0l-1.778 1.778c-.097-.067-.226-.07-.313.017-.087.086-.083.215-.017.313l-1.238 1.239-.317-.317c-.098-.098-.256-.098-.354 0s-.098.256 0 .354l.317.317-1.65 1.65c-.098.098-.098.256 0 .354.011.011.027.008.039.016-.866.193-1.745.358-2.636.472.033-.075.031-.151-.013-.221.016-.01.037-.007.05-.021l.983-.983.787.786c.096.096.255.099.353 0 .098-.098.098-.256 0-.354l-.786-.786 2.024-2.024c.098-.098.098-.256 0-.354s-.256-.098-.354 0l-2.024 2.024-.045-.045c-.099-.098-.257-.098-.354 0-.098.098-.098.256 0 .354l.045.045-.983.983c-.008.008-.006.021-.012.03l-.622-.622c-.098-.098-.256-.098-.354 0s-.098.256 0 .354l.881.881c-.839.092-1.686.142-2.538.12-.007 0-.013-.002-.02-.002-.009-.014-.006-.032-.018-.044l-.269-.268 2.041-2.041c.098-.098.098-.256 0-.353-.098-.098-.256-.098-.353 0l-2.041 2.041-.243-.243c-.099-.099-.257-.097-.354 0-.098.098-.098.256 0 .354l.243.243-.219.219c-1.735-.187-3.34-.673-4.688-1.453 6.801.253 14.192-3.954 17.002-11.345.083-.215.009-.457-.178-.588z"/><path d="m54.486 23.984c-1.079-.013-2.194-.019-3.264.289-1.229.352-2.183 1.1-2.619 2.052-.382.834-.36 1.768-.341 2.594l.166 7.309c-.02.04-.028.086-.024.133l.033.299c.015.128.122.224.249.224.005 0 .011 0 .017-.001.134-.008.236-.121.233-.255l-.175-7.72c-.018-.77-.038-1.644.296-2.374.375-.819 1.214-1.468 2.302-1.779 1.001-.288 2.08-.281 3.122-.27h.002c.137 0 .249-.11.25-.248.002-.139-.109-.252-.247-.253z"/><path d="m31.857 36.941c-1.076-.012-2.189-.021-3.265.288-1.229.351-2.183 1.1-2.619 2.053-.382.836-.36 1.769-.341 2.593l.08 3.53c.003.136.114.244.25.244h.006c.138-.003.247-.117.244-.256l-.08-3.53c-.018-.77-.038-1.643.296-2.374.375-.819 1.214-1.468 2.301-1.779 1.007-.287 2.079-.279 3.124-.269h.002c.137 0 .249-.11.25-.248s-.109-.251-.248-.252z"/><path d="m9.675 43.994c-1.303-.014-4.734-.168-5.884 2.341-.465 1.019-.357 1.875-.273 5.573.003.136.114.244.25.244h.006c.138-.003.247-.117.244-.256-.069-3.068-.228-4.354.229-5.354.969-2.117 3.878-2.063 5.425-2.049h.002c.137 0 .249-.11.25-.248 0-.137-.111-.25-.249-.251z"/></g></svg>