<svg id="Layer_1" enable-background="new 0 0 66 66" height="512" viewBox="0 0 66 66" width="512" xmlns="http://www.w3.org/2000/svg"><g><path d="m62.005 30.47c-.381-2.253-.982-5.117-5.01-5.204l-5.053-8.884c-2.056-3.603-4.202-4.96-9.427-1.705l-1.074.671c-3.203-2.663-6.406-5.33-9.604-7.999-3.241-2.704-5.721-3.121-9.427 1.712l-19.53 25.5c-2.896 3.772-2.401 5.815 1.178 8.429 1.182.855 2.153 1.469 3.812 2.625-2.183 3.307-2.247 7.443-.089 10.689 1.151 1.732 2.878 3.012 4.813 3.717.008.212.248.343.45.141 1.943.608 3.771.619 5.474.142 1.833-.514 3.516-1.633 4.791-3.16 2.381 1.371 5.289.956 8.044.41 33.269-6.57 32.397-6.053 33.283-7.486 0 0 .001 0 .001-.001.747-1.212.544-1.006-2.632-19.597zm-7.89-4.9c-.012-.024-.01-.052-.03-.072l-.127-.127c.05-.008.101-.019.14-.058l1.13-1.13.633 1.114c-.55.052-1.202.162-1.746.273zm-12.263 2.543c.03.027.068.033.105.044l-.189.04zm.348-.347.73-.73.494.494-.4.4-.826.176c.091-.095.09-.243.002-.34zm2.784-1.09.587.586c.098.098.256.098.354 0s.098-.256 0-.354l-.587-.587 1.022-1.021 1.192 1.193-.599.599-3.032.646zm4.596-1.504.875.875-.379.379-2.224.474zm1.563.893 1.401-1.401 1.019 1.019-2.377.507c.003-.045-.02-.084-.043-.125zm-8.1-10.538c4.891-3.045 6.362-1.571 8.03 1.351l3.921 6.893c-.036.012-.074.014-.103.042l-1.146 1.146c-.039.039-.05.09-.058.14l-.789-.789.906-.906c.098-.098.098-.256 0-.353-.098-.098-.256-.098-.353 0l-.906.906-.691-.691c-.098-.098-.256-.098-.354 0s-.098.256 0 .354l.691.691-1.383 1.383-.875-.875 1.768-1.768c.098-.098.098-.256 0-.354s-.256-.098-.353 0l-1.768 1.768-.395-.395c-.098-.098-.256-.098-.353 0-.098.098-.098.256 0 .353l.395.395-1.32 1.32-1.192-1.193 1.418-1.418c.098-.098.098-.256 0-.354s-.256-.098-.354 0l-2.795 2.794-.289-.29c-.098-.098-.256-.098-.354 0s-.098.256 0 .354l.289.289-.854.854-.494-.494.831-.831c.098-.098.098-.256 0-.353-.098-.098-.256-.098-.354 0l-.831.831-.099-.099c-.098-.098-.256-.098-.354 0s-.098.256 0 .354l.099.099-.727.727-.586-.585c-.098-.098-.256-.098-.354 0s-.098.256 0 .354l.586.585-.626.626-.682.145c-.011-.018-.008-.041-.024-.057l-.652-.651 1.521-1.521c.098-.098.098-.256 0-.354s-.256-.098-.354 0l-1.521 1.521-.31-.31c-.098-.098-.256-.098-.353 0-.098.098-.098.256 0 .354l.31.31-1.2 1.2c-.018.018-.015.043-.027.064l-.824.176c.007-.005.016-.003.022-.009.098-.098.098-.256 0-.354l-.314-.314 1.042-1.042c.098-.098.098-.256 0-.354s-.256-.098-.354 0l-1.042 1.042-.268-.268c-.098-.098-.256-.098-.354 0s-.098.256 0 .353l.268.268-.684.684-.494-.494.329-.329c.098-.098.098-.256 0-.353-.098-.098-.256-.098-.354 0l-.367.367c-.079-.016-.162-.008-.223.054-.062.062-.07.144-.054.223l-.892.892-.522-.522c-.014-.014-.034-.011-.05-.021l.149-.149c.098-.098.098-.256 0-.353-.098-.098-.256-.098-.354 0l-1.13 1.13-.141-.141c-.098-.098-.256-.098-.354 0s-.098.256 0 .354l.141.141-.6.6-.412.088c-.011-.019-.008-.043-.025-.06l-.713-.713.857-.857c.098-.098.098-.256 0-.354s-.256-.098-.354 0l-1.81 1.811-.162-.162c-.098-.098-.256-.098-.354 0s-.098.256 0 .354l.162.162-.374.374c-.011.011-.008.028-.017.04l-.57.121-.755-.755c-.014-.014-.034-.011-.049-.02l.988-.987c.098-.098.098-.256 0-.354s-.256-.098-.354 0l-1.99 1.99-.162-.162c-.098-.098-.256-.098-.354 0s-.098.256 0 .354l.162.162-.035.034c-.079.08-.077.193-.027.288l-1.496.319c-.028.006-.055.013-.083.019l-.109-.109 1.549-1.549c.098-.098.098-.256 0-.354s-.256-.098-.354 0l-1.54 1.55-.035-.035c-.098-.098-.256-.098-.354 0s-.098.256 0 .354l.035.035-.406.406c-3.749 1.073-4.114 3.361-3.273 6.848.136.57.352 1.384.507 1.943-.799-.189-1.801-.288-2.769-.234-.415-.592-.831-1.184-1.219-1.771-.82-1.236-1.6-2.551-1.345-3.828.268-1.342 1.574-2.254 2.889-3.073zm-3.411 13.125-1.202.256.729-.729zm-7.903 1.685-.265-.265.657-.657c.01.016.007.036.021.05l.522.522-.099.099c-.022.022-.021.053-.033.08zm-.583.124-.091.02.055-.055zm3.078-1.328.494.494-.093.093-1.255.267zm2.199.124c.035.035.082.043.127.053l-1.027.219.586-.586zm-8.22 1.831-.149-.148.599-.6.538.537zm-3.492.745-.131-.13.678-.678c.01.016.007.036.02.049l.526.526zm-10.936.089.116.116-.369.369c-.098.098-.098.256 0 .354.039.039.091.051.142.059-.233.194-.448.403-.652.621l-.369-.369 1.117-1.116c.01-.009.007-.023.015-.034zm3.516-2.576.67.67-1.333.833-.42-.42zm5.354-3.687c.03-.03.033-.07.045-.108l.568.569-.657.656c-.095.095-.094.245-.004.344l-.382.239-.635-.635zm4.466-1.606c.098.098.256.098.354 0 .072-.072.073-.171.039-.26.016.003.029.019.045.019.064 0 .128-.024.177-.073l.771-.771.195.195c.04.04.092.052.144.06l-2.982 1.863c-.003-.004-.002-.01-.005-.013l-.418-.418 1.141-1.141zm4.345-4.045.887.887c.036.036.084.045.131.054l-1.396.872c-.007-.052-.02-.104-.059-.144l-.616-.616zm-.792 2.024c.013.013.032.01.046.019l-1.626 1.016c.032-.089.031-.186-.04-.257l-.195-.195 1.198-1.198zm-5.241 3.322-1.535.959c.028-.049.043-.097.035-.152l1.154-1.154zm-1.742 1.089-.104.065.076-.076c.01.001.018.01.028.011zm-1.901 1.187-1.439.899-.284-.283 1.17-1.169zm-5.588 3.491-.92.575c-.205.128-.412.261-.618.398l-.055-.056 1.255-1.255zm-4.325 5.025-.171-.171.194-.194c-.012.122-.023.244-.023.365zm-7.22 6.035c-3.143-2.295-3.5-3.72-.973-7.012l19.53-25.5c3.157-4.118 4.945-4.092 7.992-1.553 2.109 1.761 4.223 3.519 6.336 5.278l-1.714 1.715c-.098.098-.098.256 0 .354s.256.098.353 0l.398-.398.911.911-.456.456c-.098.098-.098.256 0 .354s.256.098.354 0l.456-.456.631.632c.098.098.256.098.354 0s.098-.256 0-.354l-.631-.632.829-.829c.098-.098.098-.256 0-.353-.098-.098-.256-.098-.353 0l-.829.829-.911-.911.995-.995c.877.729 1.752 1.461 2.628 2.189l-7.804 4.875c.024-.084.019-.174-.047-.24l-.887-.887 1.198-1.198.652.652-1.001 1.001c-.098.098-.098.256 0 .354s.256.098.354 0l1.001-1.002.078.078c.098.098.256.098.354 0s.098-.256 0-.354l-.078-.078 1.428-1.428.431.431c.098.098.256.098.353 0 .098-.098.098-.256 0-.354l-.431-.431.082-.082c.098-.098.098-.256 0-.354s-.256-.098-.354 0l-.082.082-.944-.944c-.098-.098-.256-.098-.354 0s-.098.256 0 .353l.944.944-1.428 1.428-.652-.652.234-.234c.098-.098.098-.256 0-.354s-.256-.098-.354 0l-.234.234-.053-.053c-.098-.098-.256-.098-.353 0-.098.098-.098.256 0 .354l.053.053-1.2 1.2c-.098-.092-.251-.093-.347.003s-.095.249-.003.347l-1.056 1.056-.139-.139c-.098-.098-.256-.098-.353 0-.098.098-.098.256 0 .353l.139.139-1.198 1.198-.541-.541c-.098-.098-.256-.098-.354 0s-.098.256 0 .354l.541.541-.771.771c-.043.043-.06.1-.065.157l-.541-.539c-.006-.007-.003-.017-.01-.024s-.017-.004-.024-.01l-.27-.271c-.098-.098-.256-.098-.353 0-.098.098-.098.256 0 .354l.11.11-1.141 1.14-.283-.283c-.098-.098-.256-.098-.354 0s-.098.256 0 .354l.283.283-1.112 1.112-.657-.657c-.098-.098-.256-.098-.354 0-.042.042-.057.097-.063.152-.086-.027-.179-.024-.247.044l-1.064 1.064-.053-.053c-.098-.098-.256-.098-.353 0-.098.098-.098.256 0 .354l.053.053-1.17 1.169-.484-.484c-.098-.098-.256-.098-.354 0s-.098.256 0 .354l.484.484-.656.656c-.098.098-.098.256 0 .354s.256.098.354 0l.657-.656.202.202-1.51.944-.751-.752.801-.801c.098-.098.098-.256 0-.354s-.256-.098-.354 0l-2.237 2.238-.255-.254c-.098-.098-.256-.098-.354 0s-.098.256 0 .354l.254.254-1.255 1.255-.656-.656c-.098-.098-.256-.098-.354 0s-.098.256 0 .354l.207.206c-.01.008-.025.005-.034.014l-1.117 1.116-.196-.196c-.098-.098-.256-.098-.353 0-.098.098-.098.256 0 .354l.196.196-.714.714c-.098.098-.098.256 0 .354s.256.098.353 0l.714-.714.396.396c-.245.32-.449.666-.592 1.046l-.752.752-.398-.398c-.098-.098-.256-.098-.354 0s-.098.256 0 .354l.398.398-.283.283c-.098.098-.098.256 0 .354s.256.098.354 0l.283-.283.611.611c.219 1.075.827 2.092 1.468 3.058.294.445.602.893.915 1.342-.851.142-1.711.423-2.472.781l-.111-.111.773-.773c.098-.098.098-.256 0-.354s-.256-.098-.353 0l-.774.773-.973-.973c-.098-.098-.256-.098-.353 0-.098.098-.098.256 0 .354l.973.972-1.169 1.169-.393-.394.804-.804c.098-.098.098-.256 0-.354s-.256-.098-.353 0l-.806.805-.024-.024c-.098-.098-.256-.098-.354 0s-.098.256 0 .354l.024.024-.884.884c-.098-.093-.251-.093-.347.002-.096.096-.095.249-.003.347l-.092.092c-.864-.585-2.016-1.36-2.803-1.929zm4.062 2.3-.46-.46.882-.882.462.462c-.183.16-.693.663-.884.88zm-.814-.107.125.125c-.05-.034-.099-.068-.149-.102zm.721 11.378c-2.018-3.035-1.886-6.953.336-9.982 4.432-6.022 13.656-4.055 15.456 3.18.132.531.191 1.061.217 1.588-.218-.231-.431.066-.655.29l-.382-.382c-.098-.098-.256-.098-.353 0-.098.098-.098.256 0 .354l.382.382-.353.353c-.098.098-.098.256 0 .354s.256.098.353 0l.353-.353.572.572c-.09.605-.227 1.206-.449 1.788l-.593-.593.826-.826c.098-.098.098-.256 0-.354s-.256-.098-.354 0l-.826.827-.53-.53c-.098-.098-.256-.098-.354 0s-.098.256 0 .354l.53.53-.912.913c-.098.098-.098.256 0 .354s.256.098.354 0l.912-.913.663.663c.02.02.048.018.073.03-.244.546-.54 1.07-.893 1.563l-.328-.328.149-.149c.098-.098.098-.256 0-.353-.098-.098-.256-.098-.354 0l-.149.149-1.104-1.104c-.098-.098-.256-.098-.353 0-.098.098-.098.256 0 .354l1.104 1.104-.896.896-.956-.956.613-.613c.098-.098.098-.256 0-.354s-.256-.098-.354 0l-1.763 1.763-.25-.25c-.098-.098-.256-.098-.354 0s-.098.256 0 .353l.25.25-1.104 1.104-.707-.706c-.098-.098-.256-.098-.354 0s-.098.256 0 .354l.707.706-1.133 1.133-.853-.859 1.222-1.222c.098-.098.098-.256 0-.354s-.256-.098-.353 0l-1.222 1.222-.486-.486c-.098-.098-.256-.098-.354 0s-.098.256 0 .354l.486.486-.801.801c-1.881-.599-3.573-1.798-4.676-3.457zm14.714-11.078c.286-1.087 1.114-1.972 2.208-2.34 2.031-.687 4.034.7 4.251 2.689.12 1.071-.349 2.168-1.156 2.876-.098-.105-.209-.234-.333-.382-.098-.116-.201-.237-.307-.358l.657-.657c.098-.098.098-.256 0-.354-.022-.022-.054-.021-.081-.033.047-.009.095-.018.132-.054.098-.098.098-.256 0-.354l-2.068-2.067c-.098-.098-.256-.098-.354 0s-.098.256 0 .353l.136.136c-.066-.002-.132.02-.183.071l-1.918 1.918c-.197-.344-.446-.792-.984-1.444zm3.328-.302 1.69 1.69c.022.022.054.021.081.033-.047.009-.095.018-.132.054l-.644.645c-.692-.691-1.271-.912-2.096-.218l-.495-.495 1.526-1.526c.049-.051.071-.117.07-.183zm-1.345 4.09c-.037-.133-.193-.587-.226-.678.086-.096.372-.415.461-.508l.698.699c.044.044.101.061.159.066l-.563.563c-.178-.037-.356-.078-.529-.142zm-.605-2.028.487.486c-.107.114-.209.23-.307.341-.098-.233-.201-.464-.317-.69zm1.959 1.345c-.004-.057-.022-.115-.066-.159l-.685-.686c.575-.458.863-.311 1.383.212zm-2.021 3.5c-.003.067-.021.133-.025.199l-.298-.298.298-.298c.008-.008.006-.021.012-.03.002.143.02.286.013.427zm2.993-3.765c.099.113.194.225.279.326.115.137.218.256.313.36-.486.307-1.01.486-1.751.473zm-7.15 10.696-.229-.229.796-.796.41.41c-.3.256-.614.491-.941.703-.011-.03-.011-.064-.036-.088zm-.366.341c-.277.159-.563.296-.853.422l.637-.638zm-.216-.923-.956-.956.796-.796.956.956zm-5.461 1.134.846.846c-.489-.041-.973-.122-1.449-.242zm1.53.875c.005-.004.012-.002.017-.007l1.148-1.148.832.833c.039.039.091.051.141.058-.701.183-1.42.268-2.138.264zm2.332-.314c.005-.004.013-.002.018-.007.098-.098.098-.256 0-.354l-.833-.833 1.104-1.104.956.956-.824.824c-.098.098-.098.256 0 .354.01.01.024.007.035.014-.151.054-.303.105-.456.15zm3.534-2.059-.432-.432.896-.896.329.329c.022.022.053.021.08.033-.27.343-.561.668-.873.966zm41.945-7.721c-.619 1-.202.627-32.626 7.031-2.449.483-5.201.894-7.247-.209.013-.018.021-.039.034-.057 1.349-1.978 1.957-4.276 1.579-6.747 1.017.235 1.986.117 2.803-.268 1.62-.763 2.651-2.604 2.454-4.38-.148-1.355-.976-2.599-2.162-3.246-1.018-.552-2.29-.657-3.402-.28-1.221.41-2.178 1.327-2.658 2.477-.982-.948-1.997-1.597-3.178-2.059-.239-.85-.475-1.695-.675-2.529-.924-3.834-.187-5.101 3.815-5.953l31.415-6.696c5.491-1.211 6.5.583 7.08 4.012 2.879 16.853 3.358 17.942 2.768 18.904z"/><path d="m57.7 35.391c-1.013-.551-2.284-.655-3.4-.281h-.001c-2.958.997-4.053 4.697-1.826 7.002 1.236 1.28 3.31 1.671 4.937.906 1.618-.761 2.649-2.603 2.452-4.379-.151-1.358-.979-2.602-2.162-3.248zm-3.082.666c.858-.287 1.831-.208 2.603.213.465.253.853.631 1.141 1.078l-.494.494-.537-.537c-.098-.098-.256-.098-.354 0s-.098.256 0 .354l.537.537-.364.364c-.05.05-.073.115-.072.18l-.007-.007c-.098-.098-.256-.098-.353 0-.098.098-.098.256 0 .354l.991.991-.965.965-.619-.619.608-.608c.098-.098.098-.256 0-.354s-.256-.098-.354 0l-.609.608-.083-.083c-.098-.098-.256-.098-.354 0s-.098.256 0 .354l.083.083-.901.901-.602-.602c-.098-.098-.256-.098-.353 0-.098.098-.098.256 0 .354l.602.602-.271.271c-.255-.146-.494-.32-.7-.532-1.713-1.774-.836-4.598 1.427-5.361zm-.102 5.975.273.273c-.142-.035-.281-.076-.418-.127zm.985.377c-.002-.062-.023-.123-.071-.17l-.561-.561.901-.901.619.619-.321.321c-.098.098-.098.256 0 .354s.256.098.354 0l.321-.321.319.319c-.027.014-.05.032-.078.045-.462.217-.974.312-1.483.295zm1.992-.604c-.005-.007-.003-.016-.009-.022l-.387-.386.965-.965.152.152c.108.108.194.077.289.027-.242.468-.586.883-1.01 1.194zm1.127-1.448c-.01-.046-.018-.093-.053-.128l-.152-.152.305-.305c.098-.098.098-.256 0-.354s-.256-.098-.354 0l-.305.305-.738-.738c.001 0 .002.001.003.001.064 0 .128-.024.177-.073l.364-.364.496.496c.098.098.256.098.354 0s.098-.256 0-.354l-.496-.496.378-.378c.13.297.232.606.268.931.062.549-.035 1.102-.247 1.609z"/><path d="m41.77 33.498c-3.668-.304-7.734 2.197-8.887 5.463-1.142 3.238.224 7.618 3.045 9.763 2.786 2.121 6.923 2.253 9.841.316 6.654-4.418 3.963-14.885-3.999-15.542zm3.446 14.709c-2.572 1.708-6.225 1.592-8.683-.279-2.459-1.869-3.699-5.823-2.707-8.635.788-2.231 3.565-4.799 7.862-4.799 7.022.581 9.4 9.814 3.528 13.713z"/><path d="m41.04 39.077c.128.007.241-.033.337-.109.621-.148 1.28-.131 2.077-.06.279.02.518-.178.543-.453s-.178-.519-.453-.543c-.637-.058-1.308-.086-1.969.007-.026-.284-.083-.565-.185-.833-.099-.259-.388-.39-.645-.289-.258.098-.387.387-.289.644.091.237.121.49.123.743-.713.289-1.29.761-1.61 1.36-.489.917-.316 2.085.402 2.715.576.505 1.325.585 1.985.655.503.054 1.192.141 1.474.561.214.32.128.849-.193 1.179-.8.822-2.21.431-3.229.126-.266-.082-.543.07-.623.335-.079.264.07.543.335.622.866.261 1.597.471 2.478.384.009.472.054.941.176 1.399.06.224.262.371.483.371.043 0 .086-.005.129-.017.267-.071.426-.345.355-.612-.122-.458-.162-.928-.148-1.4.289-.131.553-.296.762-.51.654-.673.786-1.719.306-2.433-.484-.724-1.364-.906-2.077-.985-.501-.052-1.178-.097-1.554-.426-.656-.574-.446-1.899 1.01-2.431z"/><path d="m15.932 51.074c.504.056 1.195.138 1.479.561.215.32.128.849-.193 1.179-.797.822-2.201.434-3.23.126-.266-.078-.543.071-.623.336-.079.265.071.543.335.623.875.261 1.58.468 2.478.383.012.626.033 1.769.66 1.769.043 0 .087-.006.129-.017.267-.071.425-.346.354-.612-.122-.457-.162-.925-.148-1.396.288-.131.55-.297.762-.514.974-1 1.062-3.11-1.896-3.431-.561-.061-1.092-.118-1.429-.413-.657-.576-.442-1.903 1.012-2.431.126.007.238-.034.333-.108.621-.15 1.282-.132 2.079-.061.276.018.519-.178.543-.453.025-.275-.178-.519-.453-.543-.637-.058-1.308-.086-1.969.008-.026-.284-.083-.565-.185-.833-.099-.258-.385-.384-.645-.29-.258.099-.388.388-.289.646.09.238.121.491.123.744-2.243.907-2.27 3.143-1.208 4.075.574.501 1.321.581 1.981.652z"/><path d="m11.161 39.136-.513.513c-.098.098-.098.256 0 .354s.256.098.354 0l.513-.513 1.477 1.477c.098.098.256.098.353 0 .098-.098.098-.256 0-.354l-1.477-1.477.475-.475c.098-.098.098-.256 0-.353-.098-.098-.256-.098-.353 0l-.475.475-.685-.685c-.098-.098-.256-.098-.353 0-.098.098-.098.256 0 .354z"/></g></svg>