<svg id="Layer_1" enable-background="new 0 0 66 66" height="512" viewBox="0 0 66 66" width="512" xmlns="http://www.w3.org/2000/svg"><g><path d="m63.621 50.763c-.282-1.088-.615-2.373-1.005-3.899-.24-.952-.589-2.33-1.3-3.309 1.821-1.918 1.885-4.574.738-6.362-.751-1.169-2.021-1.907-3.549-2.093.032-1.839-.762-3.593-2.174-4.771.875-.289 1.68-.889 2.193-1.708.787-1.258 1.032-2.903.75-5.027-1.012-7.976-7.528-14.916-15.495-16.503-12.076-2.4-22.867 6.527-27.747 10.051-1.553-1.785-3.976-2.47-5.976-1.797-.227-.314-.491-.579-.813-.808-1.306-.982-3.447-.918-4.914.102-1.319.269-2.253 3.278-2.297 3.42-.561 1.968-.092 4.065-.626 5.739-.203.638-.395 1.24-.395 5.902-.035 2.814.106 6.687 3.23 8.249 1.871.914 4.533.491 6.363-1.607.184.021.37.049.551.049 2.106 0 3.804-1.373 5.016-3.398 2.209 2.11 4.613 2.182 7.571 2.097 27.694-.728 26.969-.68 27.919-.779.697 1.54 1.16 2.222 1.503 2.523-.541.521-.983 1.14-1.228 1.882-.833 2.511.611 5.519 3.097 6.438.373.133.761.211 1.156.261l.895 2.146c.37.882.37.882.81 2.02 3.316 8.575 3.468 9.731 5 9.731.889 0 1.646-.736 1.909-1.434.387-1.055.269-1.513-1.182-7.115zm-2.536-5.495c-.098.03-.07.006-.167.104l-.344-.344.281-.281c.084.169.159.341.23.521zm-.512-1.035c.012.017.02.04.032.058l-.384.384-.126-.126c.001-.001.477-.315.478-.316zm-2.779-5.588c-.022.725-.896 1.173-1.485.541-.381-.409-.491-1.024-.354-1.342.18-.413.936-.151 1.393-.191l-.074.175c.499.21.525.679.52.817zm-3.506-10.15.666-.666.786.786-.043.043c-.098.098-.098.256 0 .354s.256.098.354 0l.043-.043.192.192c.038.038.088.048.137.057-.416.21-.864.326-1.291.306-.192-.346-.499-.732-.844-1.029zm1.02-1.019.786-.786.786.786-.786.786zm1.366 1.598c.038-.091.038-.194-.035-.268l-.192-.192.785-.786.363.363c.001.001.004.001.005.002-.244.355-.565.656-.926.881zm-12.339-20.82-.339.339-.544-.544c.043.008.087.013.13.022.255.051.503.122.753.183zm-2.24-.41-1.049 1.049c-.055.055-.071.127-.064.199l-1.07-1.071.163-.163c.042-.042.056-.096.063-.151.646.013 1.299.06 1.957.137zm-4.136 1.431-1.183-1.183c-.061-.061-.142-.07-.221-.055.007-.034.008-.062.001-.097.767-.109 1.552-.185 2.35-.216l.298.298-1.241 1.241c-.002.004-.001.009-.004.012zm-2.033-1.241-.56.559-.383-.383c.311-.064.626-.122.943-.176zm-4.743 1.336.162.162-1.774 1.773-.976-.976c.784-.356 1.639-.708 2.556-1.035.013.025.011.055.032.076zm-6.85 4.525-.664-.664.012-.012c.07-.07.072-.167.041-.254.462-.287.929-.567 1.401-.839l.489.489zm-5.576 2.465.538.538-1.095 1.096-.699-.699c.414-.312.832-.623 1.256-.935zm.408-.298c.433-.316.87-.629 1.313-.94l.297.297-1.126 1.126zm1.726-1.233c.481-.334.969-.664 1.461-.988l-1.225 1.225zm4.688-2.956c.546-.307 1.099-.601 1.659-.884l-1.271 1.271zm-8.482 5.725.749.749-.649.649c-.169-.368-.36-.719-.574-1.05.309-.223.13-.088.474-.348zm-15.086 12.108c0-4.513.177-5.068.348-5.606.593-1.859.116-3.869.632-5.677.21-.687.973-2.643 1.691-2.643l.133-.179c1.121-.833 2.821-.982 3.836-.217 1.464 1.045 1.493 3.062 2.544 10.419.38 2.792.777 5.777-.391 8.342-.065-.001-.13.022-.179.072l-.835.833-.678-.678.109-.109c.098-.098.098-.256 0-.354s-.256-.098-.354 0l-.109.109-1.052-1.052c-.098-.098-.256-.098-.353 0-.04.04-.053.093-.06.144-.088-.032-.186-.031-.257.04l-1.105 1.105-.341-.341c-.098-.098-.256-.098-.353 0-.098.098-.098.256 0 .354l.341.341-.988.99-.745-.745c-.098-.098-.256-.098-.354 0s-.098.256 0 .354l.745.745-.442.442c-1.785-1.712-1.813-4.321-1.783-6.689zm6.527 6.949c.03.03-.174.033-.137.044-.057.034.584.069-.416.1v-.002l-.649-.893 1.301-1.179.739.678-.868.898c-.098.098-.067.256.03.354zm-2.654.238-.941-.941.989-.989.941.941zm.401-2.283 1.105-1.105c.029-.029.031-.068.043-.104l.972.972-1.179 1.179zm-2.103 2.103.408-.408 1.023 1.023c-.326-.052-.642-.136-.928-.276-.178-.088-.339-.217-.503-.339zm1.927.662 1.117-1.117.766.766c-.611.248-1.258.37-1.883.351zm3.268-1.204.157-.157c-.135.132.014 0-.157.157zm1.918-.783c1.716-2.805 1.35-6.309.918-9.532-.85-6.045-1.076-8.317-1.673-9.629 3.258-.95 7.311 2.186 6.698 9.772-.362 4.492-2.564 9.26-5.943 9.389zm6.346-5.942c.01.046.018.093.053.128l.547.547-1.263 1.263c.259-.617.479-1.267.663-1.938zm-.811 2.794 1.765-1.765.921.92-.593.593c-.067-.003-.135.018-.186.069s-.072.119-.069.186l-.808.808c-.364-.231-.708-.5-1.03-.811zm3.039-.491 1.21 1.21-.544.544-1.21-1.21zm-1.566 1.567.669-.669 1.21 1.21-.076.076c-.818-.157-1.303-.355-1.803-.617zm5.412.775c-.25.008-.506.015-.764.02l.972-.972.923.923zm6.315-.18c-.004.004-.002.01-.006.014l-1.423.037 1.084-1.084.689.688zm-3.987.119.891-.891.846.846zm7.336-.193-.01-.01.693-.692c.098-.098.098-.256 0-.353-.098-.098-.256-.098-.354 0l-.693.692-.721-.721c-.098-.098-.256-.098-.354 0s-.098.256 0 .354l.734.734c-.003.005-.004.01-.006.015l-1.493.039c.039-.091.039-.195-.035-.269l-.059-.059.52-.52c.098-.098.098-.256 0-.354s-.256-.098-.354 0l-.52.52-.689-.689.281-.281c.098-.098.098-.256 0-.354s-.256-.098-.354 0l-.281.281-.055-.055c-.098-.098-.256-.098-.354 0s-.098.256 0 .354l.055.055-1.152 1.152-.892-.891.207-.207c.098-.098.098-.256 0-.354s-.256-.098-.354 0l-.207.207-.142-.142c-.098-.098-.256-.098-.354 0s-.098.256 0 .354l.142.142-1.152 1.152-1.152-1.152.943-.943c.098-.098.098-.256 0-.353-.098-.098-.256-.098-.354 0l-.943.943-.605-.605c-.098-.098-.256-.098-.354 0s-.098.256 0 .354l.605.605-1.329 1.329c-.403-.003-.808-.02-1.213-.057-.012-.037-.015-.076-.044-.106l-.095-.095.713-.713c.003-.003.008-.001.011-.005.003-.003.002-.008.005-.011l1.066-1.066c.098-.098.098-.256 0-.354s-.256-.098-.354 0l-.897.897-1.21-1.21.416-.416c.098-.098.098-.256 0-.354s-.256-.098-.354 0l-.416.416-.92-.92.3-.3c.098-.098.098-.256 0-.354s-.256-.098-.353 0l-.3.3-.547-.547c-.095-.095-.247-.094-.345-.003.264-1.018.447-2.078.533-3.137.176-2.174-.036-4.582-.83-6.594.004-.004.011-.002.015-.006l.779-.779.514.514c.098.098.256.098.353 0 .098-.098.098-.256 0-.354l-.514-.514 1.095-1.095.356.356c.098.098.256.098.354 0s.098-.256 0-.354l-.356-.356 1.126-1.126.262.263c.098.098.256.098.354 0s.098-.256 0-.354l-.262-.262 1.835-1.835.664.664-.624.625c-.098.098-.098.256 0 .354s.256.098.353 0l.636-.636c.122.085.23.068.314-.016.087-.087.084-.217.016-.314l1.291-1.292.145.145c.098.098.256.098.354 0s.098-.256 0-.353l-.145-.145 1.568-1.569c.098-.098.098-.256 0-.353-.009-.009-.023-.006-.033-.014.292-.141-.127.055.257-.126l1.106 1.106-.069.069c-.098.098-.098.256 0 .354s.256.098.354 0l.239-.239c.003-.003.007-.001.01-.004s.001-.007.004-.01l1.944-1.943 1.166 1.166c.098.098.256.098.354 0s.098-.256 0-.354l-1.573-1.573c.874-.295 1.798-.563 2.761-.785l.606.606-1.611 1.611c-.098.098-.098.256 0 .354s.256.098.354 0l1.612-1.612 1.88 1.88c.098.098.256.098.354 0s.098-.256 0-.353l-1.88-1.88.644-.644c.008.051.02.103.059.142l1.638 1.639c.098.098.256.098.354 0s.098-.256 0-.354l-.109-.109c.003-.003.008-.002.011-.005l1.241-1.241 1.396 1.396c.098.098.256.098.354 0s.098-.256 0-.354l-.109-.106c.008.001.014.009.023.009.064 0 .128-.024.177-.073l1.272-1.272.971.971-.07.07c-.098.098-.098.256 0 .354s.256.098.354 0l.07-.07.369.369c.098.098.256.098.354 0s.098-.256 0-.354l-.37-.368.554-.554c6.946 1.966 12.474 8.211 13.377 15.329.012.09.01.166.02.253l-.029.029-1.062-1.062c-.098-.098-.256-.098-.354 0s-.098.256 0 .354l1.062 1.062-.662.663c-.032.032-.038.076-.049.117l-.237-.238c-.098-.098-.256-.098-.354 0s-.098.256 0 .354l1.239 1.24c.098.098.256.098.354 0s.098-.256 0-.354l-.717-.718c.041-.011.085-.016.117-.049l.675-.675c.023.016.049.024.076.031.057 1.214-.117 2.204-.515 3.004l-.258-.259.387-.387c.232-.232-.119-.588-.354-.354l-.387.387-.786-.786.319-.319c.098-.098.098-.256 0-.354s-.256-.098-.354 0l-.319.319-.003-.003c-.098-.098-.256-.098-.354 0s-.098.256 0 .354l.003.003-.786.786-.143-.143c-.098-.098-.256-.098-.353 0-.098.098-.098.256 0 .354l.143.143-.713.713c-.28-.187-.564-.333-.835-.453-.638-1.961-.572-6.764-5.541-8.342-6.046-1.912-12.138 5.038-4.884 6.748 7.992 1.887 8.215 1.874 9.593 2.424.001 0-.235.001-.235.002v.002c1 .049.45.104.557.155.971.476 1.443 1.214 1.443 1.483 1 .505.444.996.257 1.458-.874 2.174-2.405 1.689-20.863 2.173zm18.527-6.518c-.846-.245-3.388-.816-9.048-2.15-5.891-1.392-.209-6.262 4.352-4.822 3.888 1.235 4.203 4.771 4.696 6.972zm1.607 8.867c.066-.102.252-.138.335-.089-.039-.022-.379-.269-1.168-1.967 1.433-.366 2.311-1.186 2.675-2.091.138-.343.198-.699.191-1.061 1.119.88 2.001 2.333 1.968 4.084-1.28.043-2.664.476-3.765 1.278zm-.626 2.845c.61-1.847 2.669-2.851 4.51-2.961-.084.386-.144.595-.144.595-.054.011-.16-.009-.249-.018-.875-.095-1.614-.017-1.967.802-.309.717-.076 1.757.542 2.419.381.409.854.622 1.353.622.991 0 1.832-.774 1.863-1.815.018-.605-.248-1.16-.703-1.517.215-.385.244-.691.312-1.064 1.222.155 2.226.73 2.809 1.637.921 1.435.911 3.816-.937 5.448-1.428 1.269-3.41 1.569-4.899 1.036-1.964-.726-3.15-3.197-2.49-5.184zm6.059 10.5.159.159-.07.07c-.031-.08-.061-.157-.089-.229zm-.94-2.357-.465-1.115.79.79zm-.395-1.751c.309-.038.771-.139.939-.188l.704.704c-.007.006-.017.003-.024.01l-.546.547zm6.255 12.109c-.143.377-.567.781-.972.781-.816 0-1.103-1.445-3.662-8.044l.226-.226.38.38c.098.098.256.098.354 0s.098-.256 0-.354l-.38-.38 1.116-1.116c.098-.098.098-.256 0-.353-.098-.098-.256-.098-.354 0l-1.116 1.116-.961-.961c-.103-.263-.178-.447-.284-.703l.47-.47.338.338c.098.098.256.098.353 0 .098-.098.098-.256 0-.354l-.338-.338.546-.547c.007-.007.004-.017.01-.024l.11.11c.098.098.256.098.354 0s.098-.256 0-.354l-.977-.977c.046-.018.516-.235.56-.257l.925.924-.353.353c-.098.098-.098.256 0 .354s.256.098.354 0l.358-.358c.119.101.251.077.335-.007.039-.039.051-.091.059-.142.131.421.241.836.329 1.185.392 1.529.725 2.815 1.006 3.903 1.387 5.355 1.486 5.779 1.214 6.521z"/><path d="m8.998 32.243-.24.24c-.098.098-.098.256 0 .354.049.049.113.073.177.073s.128-.024.177-.073l.24-.24 1.185 1.186c.049.049.113.073.177.073s.128-.024.177-.073c.098-.098.098-.256 0-.354l-1.185-1.186.834-.834c.008-.008.005-.019.011-.027l.333.333c.049.049.113.073.177.073s.128-.024.177-.073c.098-.098.098-.256 0-.354l-1.292-1.292c-.098-.098-.256-.098-.354 0s-.098.256 0 .354l.621.621c-.008.007-.02.004-.028.011l-.833.835-.328-.328c-.098-.098-.256-.098-.353 0-.098.098-.098.256 0 .354z"/><path d="m34.397 20.739-1.803 1.803-1.475-1.475 2.191-2.191c.098-.098.098-.256 0-.353-.098-.098-.256-.098-.354 0l-2.191 2.191-.665-.666 1.6-1.6c.098-.098.098-.256 0-.354s-.256-.098-.354 0l-1.6 1.6-.363-.363c-.098-.098-.256-.098-.354 0s-.098.256 0 .354l.363.362-.782.782c-.098.098-.098.256 0 .354s.256.098.354 0l.782-.782.666.666-1.655 1.655-1.592-1.592c-.098-.098-.256-.098-.353 0-.098.098-.098.256 0 .354l1.592 1.592-1.892 1.892c-.098.098-.098.256 0 .354s.256.098.354 0l1.892-1.892.216.216-1.262 1.262c-.098.098-.098.256 0 .354s.256.098.354 0l1.262-1.262.954.954c-.003.068.017.136.069.188.049.049.113.073.177.073.004 0 .007-.004.011-.005l1.023 1.023c.098.098.256.098.354 0s.098-.256 0-.353l-.975-.975 1.655-1.655 1.234 1.234c.098.098.256.098.354 0s.098-.256 0-.354l-1.234-1.234 1.803-1.803c.098-.098.098-.256 0-.354-.1-.098-.258-.098-.356 0zm-3.811 3.812-.905-.906.572-.572c.098-.098.098-.256 0-.354s-.256-.098-.354 0l-.572.572-.216-.216 1.655-1.655 1.475 1.475z"/></g></svg>