<svg id="Layer_1" enable-background="new 0 0 512 512" height="512" viewBox="0 0 512 512" width="512" xmlns="http://www.w3.org/2000/svg"><path d="m56.512 242.769v225.819c0 18.453 14.959 33.412 33.412 33.412h332.152c18.453 0 33.412-14.959 33.412-33.412v-225.819" fill="#ddb9a3"/><path d="m148.044 144.564h215.912v134.727h-215.912z" fill="#fff3da"/><path d="m89.924 206.247c-18.453 0-33.412 14.959-33.412 33.412v39.632h91.532v-73.044z" fill="#d1a184"/><path d="m418.966 206.247h-55.01v73.044h55.01c20.17 0 36.522-16.351 36.522-36.522 0-20.17-16.352-36.522-36.522-36.522z" fill="#d1a184"/><path d="m393.874 144.564h-275.749l137.875-134.564z" fill="#ff9c9b"/><path d="m220.606 209h70.787v70.291h-70.787z" fill="#ddb9a3"/><path d="m455.488 408.758h-103.104c-21.199 0-38.385-17.185-38.385-38.384 0-21.199 17.185-38.384 38.385-38.384h103.103v76.768z" fill="#ffe6b4"/><path d="m255.819 468.46c-4.232 0-8.113-2.777-9.469-6.786-1.285-3.796-.143-8.087 2.876-10.73 3.284-2.876 8.158-3.248 11.866-.97 3.454 2.122 5.297 6.302 4.558 10.283-.871 4.686-5.052 8.203-9.831 8.203z"/><path d="m418.966 196.248h-45.01v-41.684h19.918c4.066 0 7.729-2.463 9.262-6.23s.633-8.087-2.277-10.927l-137.875-134.564c-3.885-3.791-10.084-3.791-13.969 0l-137.874 134.565c-2.91 2.84-3.811 7.16-2.277 10.927 1.533 3.767 5.195 6.23 9.262 6.23h19.918v41.684h-48.12c-23.938 0-43.412 19.475-43.412 43.412v228.928c0 23.938 19.475 43.412 43.412 43.412h332.152c23.938 0 43.412-19.475 43.412-43.412v-225.82c0-25.652-20.87-46.521-46.522-46.521zm0 20c14.625 0 26.522 11.897 26.522 26.521s-11.897 26.521-26.522 26.521h-45.01v-53.043h45.01zm-162.966-192.275 113.31 110.591h-226.621zm97.956 130.591v114.727h-52.563v-60.291c0-5.523-4.478-10-10-10h-70.787c-5.522 0-10 4.477-10 10v60.291h-52.563v-114.727zm-72.563 114.727h-50.787v-50.291h50.787zm-214.882-29.631c0-12.909 10.503-23.412 23.412-23.412h48.12v53.043h-71.532zm355.565 252.34h-332.152c-12.909 0-23.412-10.503-23.412-23.412v-.126h144.282c5.523 0 10-4.478 10-10s-4.477-10-10-10h-144.283v-159.171h352.454c9.849 0 18.994-3.077 26.522-8.32v41.019h-93.104c-26.68 0-48.385 21.705-48.385 48.384 0 26.68 21.705 48.385 48.385 48.385h93.104v29.703h-144.281c-5.523 0-10 4.478-10 10s4.477 10 10 10h144.282v.126c0 12.909-10.503 23.412-23.412 23.412zm23.412-93.242h-93.104c-15.651 0-28.385-12.733-28.385-28.385 0-15.65 12.733-28.384 28.385-28.384h93.104z"/><path d="m349 370.374c0 5.522 4.478 10 10 10h14c5.522 0 10-4.478 10-10s-4.478-10-10-10h-14c-5.523 0-10 4.477-10 10z"/></svg>