<svg id="Layer_1" enable-background="new 0 0 66 66" height="512" viewBox="0 0 66 66" width="512" xmlns="http://www.w3.org/2000/svg"><g><path d="m61.609 26.384c-5.95-7.132-12.609-13.786-19.791-19.778-7.207-6.044-11.646-5.981-18.835.761-3.715 3.46-20.331 19.903-21.739 24.533-1.07 3.507 1.367 6.551 5.194 5.616.69-.167 1.324-.458 1.903-.774-.179 5.946-.137 13.625-.359 17.415-.359 6.622 1.36 9.586 9.683 9.586 38.642-.016 38.334.653 39.437-1.84 2.029-4.586 1.008-17.379-.044-23.794 2.431.92 5.384.568 6.948-1.493.001 0 .001-.001.002-.002 1.087-1.448 1.304-3.538.58-5.591-.62-1.717-1.763-3.174-2.979-4.639zm-50.789 8.689.001.001-1.336 1.336-.132-.132c.002-.047.003-.099.004-.145.891-.597 1.135-.79 1.463-1.06zm-1.543 4.307.037.037-.035.035c-.002.002-.001.006-.004.009.001-.028.001-.054.002-.081zm.054-.653c-.011-.011-.028-.008-.041-.017.011-.505.024-.99.037-1.472.067-.036-.003.04.159-.121l1.064 1.064-.883.883zm-.35 15.486c.158-2.705.183-7.351.251-12.164l.504.504-.397.397c-.098.098-.098.256 0 .353.098.098.256.098.354 0l.396-.396.036.036c.098.098.256.098.354 0s.098-.256 0-.354l-.036-.036 1.906-1.906c.098-.098.098-.256 0-.354s-.256-.098-.354 0l-1.906 1.907-.758-.758c-.025-.025-.059-.025-.09-.037.008-.548.017-1.088.027-1.624.006.007.003.018.01.024.049.049.113.073.177.073s.128-.024.177-.073l.035-.035 1.18 1.18c.098.098.256.098.354 0s.098-.256 0-.354l-1.18-1.18.883-.883.125.125c.098.098.256.098.353 0 .098-.098.098-.256 0-.354l-.125-.125.875-.875c.098-.098.098-.256 0-.354s-.256-.098-.353 0l-.875.875-1.064-1.064 1.335-1.336 1.189 1.189c.098.098.256.098.354 0s.098-.256 0-.353l-1.189-1.189 1.154-1.154 1.102 1.102c.098.098.256.098.354 0s.098-.256 0-.353l-1.102-1.102c.237-.237.609-.495.375-.729-.037-.037-.085-.046-.132-.055.245-.245.499-.503.757-.767l1.128 1.128-.155.155c-.098.098-.098.256 0 .354s.256.098.354 0l.155-.155.131.131c.098.098.256.098.354 0s.098-.256 0-.354l-.131-.131 1.245-1.245.321.321c.098.098.256.098.354 0s.098-.256 0-.353l-.321-.321 1.728-1.727.016.016c.098.098.256.098.354 0s.098-.256 0-.354l-.017-.017 1.579-1.579c.098-.098.098-.256 0-.353-.098-.098-.256-.098-.354 0l-1.579 1.579-1.23-1.229c.804-.857 1.645-1.753 2.432-2.585.012.031.013.067.038.092l.306.306-.788.788c-.098.098-.098.256 0 .354s.256.098.354 0l.788-.788 1.172 1.172c.098.098.256.098.354 0s.098-.256 0-.354l-1.172-1.172 1.969-1.969 1.327 1.327c.098.098.256.098.354 0s.098-.256 0-.354l-2.106-2.106c.702-.719 1.403-1.421 2.096-2.097.01.045.017.092.052.127l.879.879-1.424 1.423c-.098.098-.098.256 0 .354s.256.098.354 0l1.422-1.421.545.545c.098.098.256.098.354 0s.098-.256 0-.354l-.545-.545 1.366-1.366.436.436c.098.098.256.098.354 0s.098-.256 0-.354l-.436-.436.193-.193c.098-.098.098-.256 0-.354s-.256-.098-.354 0l-.193.193-.908-.907c.576-.52 1.131-.997 1.664-1.429l.428.428-.577.577c-.098.098-.098.256 0 .354s.256.098.354 0l.577-.577.915.915c.098.098.256.098.354 0s.098-.256 0-.354l-.915-.915 1.121-1.121c.049-.049.072-.112.073-.175l.904.904-.547.547c-.098.098-.098.256 0 .353.098.098.256.098.353 0l.547-.547.516.519c.098.098.256.098.354 0s.098-.256 0-.354l-.517-.517.642-.642 1 1c.098.098.256.098.354 0s.098-.256 0-.354l-1-1 .518-.518c.098-.098.098-.256 0-.354s-.256-.098-.353 0l-.518.518c-.215-.215-.413-.491-.629-.275-.098.098-.098.256 0 .354l.275.275-.642.642-1.301-1.301c1.13-.642 2.374-1.135 4.505.45l-.787.786c-.098.098-.098.256 0 .354s.256.098.354 0l.825-.825c1.176.982.843.693 15.04 16.947 1.353 1.557 2.92 3.334 4.885 4.406.392 2.199.739 4.893.98 7.692-.012.008-.027.005-.038.016l-.274.274-.454-.454c-.098-.098-.256-.098-.354 0s-.098.256 0 .354l.454.454-.454.454c-.098.098-.098.256 0 .354s.256.098.354 0l.455-.455.364.364c.015.015.037.012.055.023.035.486.066.971.094 1.458-.082-.02-.167-.013-.231.051l-.057.058-.5-.499c-.098-.098-.256-.098-.354 0s-.098.256 0 .354l.5.499-1.401 1.401c-.098.098-.098.256 0 .354s.256.098.354 0l1.401-1.401.349.349c.048 1.072.078 2.134.083 3.163l-1.833-1.833c-.098-.098-.256-.098-.354 0s-.098.256 0 .354l1.356 1.356-1.179 1.179-.004-.004c-.098-.098-.256-.098-.353 0-.098.098-.098.256 0 .354l.004.004-.905.905c-.098.098-.098.256 0 .354s.256.098.354 0l.905-.905 1.137 1.137c.098.098.256.098.354 0s.098-.256 0-.354l-1.137-1.137 1.18-1.179.165.165c.084.084.185.1.308.019-.003 2.191-.118 4.21-.376 5.863l-.188.188-1.765-1.765.533-.533c.098-.098.098-.256 0-.354s-.256-.098-.354 0l-.536.531-1.311-1.311c-.098-.098-.256-.098-.354 0s-.098.256 0 .354l1.311 1.311-1.901 1.901-1.675-1.675 2.12-2.12c.098-.098.098-.256 0-.354s-.256-.098-.354 0l-2.12 2.12-.004-.004c-.098-.098-.256-.098-.354 0s-.098.256 0 .354l.004.004-1.675 1.675-.951-.95c-.098-.098-.256-.098-.354 0s-.098.256 0 .354l.95.951-1.36 1.36-1.495-1.495 1.704-1.704c.098-.098.098-.256 0-.354s-.256-.098-.354 0l-1.704 1.704-.184-.183c-.098-.098-.256-.098-.354 0s-.098.256 0 .354l.184.184-1.36 1.36-.905-.905c-.098-.098-.256-.098-.354 0s-.098.256 0 .354l.905.905-1.089 1.089-1.179-1.179 2.21-2.21c.098-.098.098-.256 0-.354s-.256-.098-.354 0l-2.21 2.21-.004-.004c-.098-.098-.256-.098-.354 0s-.098.256 0 .354l.004.004-1.089 1.089-.725-.725c-.098-.098-.256-.098-.354 0s-.098.256 0 .354l.725.725-.397.397-20.177.008c-7.619-.005-9.012-2.381-8.679-8.535zm21.948-38.239c-.063 0-.127.024-.175.073l-1.121 1.121-.39-.39c.516-.404 1-.746 1.455-1.034zm-4.112 2.885.924.924-1.366 1.365-.879-.879c-.034-.034-.08-.041-.123-.051.491-.474.971-.924 1.444-1.359zm-6.025 6.176c-.029-.028-.067-.031-.103-.043.645-.68 1.299-1.362 1.958-2.04l.42.42-1.969 1.969zm-3.167 3.211 1.219 1.218-1.728 1.728-1.167-1.167c.542-.572 1.102-1.167 1.676-1.779zm-2.019 2.142 1.157 1.157-1.245 1.245-1.132-1.132c.394-.406.8-.828 1.22-1.27zm41.385 15.55-.011-.011.009-.009c.001.007.001.013.002.02zm-.628 13.334-1.901 1.901-1.765-1.765 1.901-1.901zm-4.373.135-1.675 1.675-1.675-1.675 1.675-1.675zm-6.811 3.108c.098.098.256.098.354 0l1.04-1.04 1.256 1.256-3.175.001c.025-.012.053-.01.074-.031.098-.098.098-.256 0-.354l-1.362-1.363 1.36-1.36 1.495 1.495-1.04 1.04c-.1.1-.1.258-.002.356zm-5.836.219-.396-.396 1.089-1.089 1.179 1.179-.094.094c-.059.059-.07.136-.059.212zm-.707 0h-.086l.043-.043zm3.47-.122-.184-.184 1.089-1.089 1.362 1.363c.021.021.049.019.074.031l-2.292.001c-.009-.044-.015-.089-.049-.122zm6.094.118c.088-.098.089-.247-.005-.341l-1.268-1.268 1.36-1.36 1.675 1.675-.815.815c-.098.098-.098.256 0 .354s.256.098.354 0l.815-.815.968.968c-.389-.014-.77-.028-1.122-.028zm3.766.049c-.012-.026-.011-.056-.032-.077l-1.266-1.266 1.675-1.675 1.765 1.765-.454.454c-.098.098-.098.256 0 .353.098.098.256.098.354 0l.454-.454.553.553c.019.019.046.017.069.029-.842.33-1.986.352-3.118.318zm4.222-1.28c-.161.364-.43.626-.771.817.022-.083.017-.172-.048-.237l-.553-.553 1.904-1.904c.008.007.019.006.028.012-.151.724-.335 1.357-.56 1.865zm-.476-25.234.936-.936 1.699 1.698c.098.098.256.098.354 0s.098-.256 0-.354l-.122-.122.974-.974 1.742 1.742c-1.982.644-3.876.092-5.583-1.054zm1.289-1.289.974-.974 1.223 1.223-.974.974zm4.157 1.502-1.253-1.253 1.472-1.472 1.223 1.223-1.399 1.4c-.029.028-.031.067-.043.102zm.64.64-.347-.347c.035-.012.074-.014.102-.042l1.399-1.4.419.419c-.055.088-.101.18-.164.264-.376.497-.865.853-1.409 1.106zm1.821-1.83-.312-.312.501-.501c.098-.098.098-.256 0-.354s-.256-.098-.354 0l-.501.501-1.222-1.222.156-.156c.098-.098.098-.256 0-.354s-.256-.098-.354 0l-.156.156-1.317-1.317c-.098-.098-.256-.098-.354 0s-.098.256 0 .353l1.317 1.317-1.472 1.472-1.223-1.223.982-.982c.098-.098.098-.256 0-.354s-.256-.098-.354 0l-.982.982-.238-.238c-.098-.098-.256-.098-.354 0s-.098.256 0 .354l.238.238-.974.974-.57-.57c-.098-.098-.256-.098-.354 0s-.098.256 0 .354l.57.57-1 1c-1.328-.987-2.449-2.275-3.467-3.447-14.359-16.44-15.56-18.676-18.911-18.676-5.913 0-20.349 21.149-26.712 22.691-3.04.748-4.851-1.567-4.001-4.352 1.239-4.071 16.547-19.513 21.464-24.095 6.83-6.404 10.695-6.441 17.511-.725 7.138 5.955 13.754 12.566 19.664 19.651 1.201 1.446 2.241 2.771 2.804 4.336.116.328.21.692.273 1.075l-1.316-1.316.531-.531c.098-.098.098-.256 0-.354s-.256-.098-.354 0l-.531.531-.778-.778c-.098-.098-.256-.098-.354 0s-.098.256 0 .354l.778.778-.197.197c-.098.098-.098.256 0 .354s.256.098.354 0l.197-.197 1.499 1.499c.049.049.113.073.177.073.022 0 .04-.019.061-.025.052.757-.047 1.55-.365 2.269z"/><path d="m32.937 25.362c-1.831.037-3.234 1.535-3.814 3.002-.602 1.527-.576 3.208-.552 4.691l.161 10.158c.024 1.54.253 3.671 1.948 4.393.33.141.659.211.98.211.589 0 1.156-.235 1.675-.7 3.385-3.033 4.387-15.994 3.669-18.37-.518-1.712-2.056-3.429-4.067-3.385zm.02 1h.049c.162 0 .318.022.472.053l-.577.578-.537-.536c.191-.053.387-.091.593-.095zm-3.147 17.994.303.303-.217.217c-.034-.163-.063-.336-.086-.52zm-.113-3.309-.031-1.927.302-.302.97.97c.028.028.066.03.101.042-.013.009-.03.006-.042.017l-1.251 1.251zm-.101-6.408-.014-.91.609-.609.725.725-1.057 1.057zm-.026-1.606c-.003-.178-.002-.358-.004-.537l.271.271zm.216-1.024c-.062-.062-.145-.07-.224-.053.003-.399.02-.798.053-1.192l.326-.326 1.112 1.112-.863.863zm.016-2.418c.067-.291.141-.581.251-.859.065-.165.146-.329.235-.492l.572.572-.919.919zm2.866 16.782c-.514.459-1.021.559-1.596.313-.469-.2-.806-.614-1.026-1.253l.432-.432c.122.086.232.069.316-.015.087-.087.084-.219.015-.316l.749-.749c.098-.098.098-.256 0-.354s-.256-.098-.354 0l-.738.738-.719-.719c-.006-.129-.015-.252-.017-.389l-.021-1.355.038-.038.868.868c.098.098.256.098.353 0 .098-.098.098-.256 0-.354l-.868-.868 1.251-1.251c.098-.098.098-.256 0-.354-.028-.028-.066-.03-.101-.042.013-.009.03-.006.042-.017.098-.098.098-.256 0-.354l-.97-.97 1.223-1.224c.098-.098.098-.256 0-.354s-.256-.098-.354 0l-1.223 1.224-.293-.293c-.008-.008-.021-.005-.03-.012l-.031-1.952.244-.244.904.904c.098.098.256.098.354 0s.098-.256 0-.354l-.904-.904 1.135-1.135c.08-.081.078-.196.026-.291.039-.091.039-.195-.035-.269l-.794-.794 1.054-1.054c.098-.098.098-.256 0-.353-.015-.016-.038-.013-.056-.023-.002-.003-.001-.006-.003-.009l-1.243-1.243.919-.919 1.179 1.179c.098.098.256.098.354 0s.098-.256 0-.353l-1.179-1.179.377-.377c.098-.098.098-.256 0-.354s-.256-.098-.354 0l-.377.377-.652-.652c.345-.486.796-.908 1.326-1.168.012.028.011.06.035.083l.625.625-.404.404c-.098.098-.098.256 0 .354s.256.098.354 0l.404-.404.695.695c.098.098.256.098.354 0s.098-.256 0-.353l-.695-.695.666-.666c.031-.031.036-.074.047-.113 1.003.42 1.769 1.443 2.08 2.471.597 1.985-.328 14.599-3.382 17.336z"/><path d="m29.166 53.235c-.146 1.25.347 2.774 1.225 3.793 1.515 1.757 4.061 1.845 5.846-1.461 3.549-6.56-6.522-7.06-7.071-2.332zm4.293-.719-.678-.678c.074-.098.077-.234-.013-.323-.089-.089-.225-.086-.323-.013l-.213-.213c.428-.153.859-.244 1.236-.249.053.13.564.617.673.725l-.636.636c-.031.032-.035.075-.046.115zm-1.721-1.014.345.346-.749.749-.485-.485c.256-.242.56-.446.889-.61zm-1.559 2.667 1.43 1.43-.589.589c-.436-.575-.743-1.309-.841-2.019zm5.179.922c-1.072 1.983-2.61 2.854-4.015 1.481l.62-.62.025.025c.098.098.256.098.354 0s.098-.256 0-.354l-.025-.025 1.102-1.103c.098-.098.098-.256 0-.354s-.256-.098-.354 0l-1.102 1.103c-.103-.103-1.675-1.697-1.802-1.761.023-.34.054-.574.357-.996l.463.463-.373.373c-.098.098-.098.256 0 .354s.256.098.354 0l.373-.373.646.646c.098.098.256.098.353 0 .098-.098.098-.256 0-.354l-.646-.646.749-.749.977.977c.098.098.256.098.354 0s.098-.256 0-.354l-.022-.022c.04-.011.083-.016.114-.047l.636-.636.217.217c.098.098.256.098.354 0s.098-.256 0-.354l-.218-.218c.097-.098.097-.255 0-.353-.097-.097-.255-.097-.353 0l-.263-.263c1.539.447 2.319 1.734 1.125 3.943z"/><path d="m22.536 14.644-1.188 1.188-.47-.47c-.098-.098-.256-.098-.354 0s-.098.256 0 .354l.47.47-.94.94-.532-.532c-.098-.098-.256-.098-.354 0s-.098.256 0 .354l.531.531-1.094 1.094-.378-.378c-.098-.098-.256-.098-.354 0s-.098.256 0 .354l.378.378-1.463 1.463-.409-.409c-.098-.098-.256-.098-.354 0s-.098.256 0 .354l.409.409-1.217 1.217-.316-.316c-.098-.098-.256-.098-.353 0-.098.098-.098.256 0 .354l.316.316-1.183 1.185-.563-.562c-.098-.098-.256-.098-.354 0s-.098.256 0 .354l.563.562-1.917 1.917c-.098.098-.098.256 0 .353.098.098.256.098.354 0l1.917-1.917.818.818c.098.098.256.098.353 0 .098-.098.098-.256 0-.354l-.818-.819 1.186-1.186.412.412c.098.098.256.098.354 0s.098-.256 0-.354l-.412-.412 1.217-1.217.32.32c.098.098.256.098.354 0s.098-.256 0-.354l-.32-.32 1.463-1.463.162.163c.098.098.256.098.354 0s.098-.256 0-.354l-.163-.163 1.094-1.094.471.471c.098.098.256.098.354 0s.098-.256 0-.354l-.471-.471.94-.94.414.415c.098.098.256.098.354 0s.098-.256 0-.354l-.415-.415 1.188-1.188c.098-.098.098-.256 0-.354-.098-.094-.256-.094-.354.004z"/><path d="m49.073 22.342.448-.448c.098-.098.098-.256 0-.353-.098-.098-.256-.098-.354 0l-.448.448-1.148-1.148.753-.753c.098-.098.098-.256 0-.354s-.256-.098-.354 0l-.753.753-1.722-1.722.812-.812c.098-.098.098-.256 0-.354s-.256-.098-.353 0l-.812.812-1.06-1.06 1.223-1.223c.098-.098.098-.256 0-.353-.098-.098-.256-.098-.354 0l-1.223 1.223-1.678-1.678c-.098-.098-.256-.098-.354 0s-.098.256 0 .353l1.678 1.678-.971.971c-.098.098-.098.256 0 .354s.256.098.354 0l.971-.971 1.06 1.06-.883.883c-.098.098-.098.256 0 .354s.256.098.354 0l.883-.883 1.722 1.722-.662.662c-.098.098-.098.256 0 .354s.256.098.354 0l.662-.662 1.148 1.148-.574.574c-.098.098-.098.256 0 .353.098.098.256.098.354 0l.574-.574 1.263 1.263c.098.098.256.098.354 0s.098-.256 0-.354z"/></g></svg>