<svg id="Layer_1" enable-background="new 0 0 66 66" height="512" viewBox="0 0 66 66" width="512" xmlns="http://www.w3.org/2000/svg"><g><path d="m61.087 1.589c.043-.276-.144-.561-.497-.576-22.152.124-39.705.221-55.186.321-.301.002-.535.27-.492.571 1.181 8.227 2.361 16.467 3.53 24.696 1.136 7.825 3.316 10.265 11.463 10.646 3.04.157 6.121.257 9.171.309-.704 3.976-1.778 7.446-2.418 16.325-.181 2.358-.278 4.853.682 7.137 2.156 5.108 8.393 5.501 10.549-.072.761-1.951.787-4.112.809-6.019 0 0 0 0 0-.001.059-5.646.12-11.484-.287-17.228l-.01-.14c1.436-.017 2.872-.053 4.308-.096 15.312-.484 13.829-6.496 18.378-35.873zm-51.345 25.617 1.827 1.828-.884.883c-.098.098-.098.256 0 .354s.256.098.354 0l.883-.883 1.945 1.945c.049.049.113.073.177.073.038 0 .069-.026.104-.043l-1.346 1.346-2.367-2.367c-.064-.064-.149-.07-.231-.051-.285-.97-.488-2.01-.656-3.085zm.72 3.87 1.986 1.986-.541.541c-.634-.72-1.097-1.576-1.445-2.527zm23.972 4.283.853.853-.187.187c-.052.052-.072.121-.068.189-1 .004-.349.008-1.461.007.061-.198-.079-.279-.243-.443l1.077-1.077c-.048.094-.05.206.029.284zm1.207 1.207c.012.012.03.009.043.018-.021 0-.041 0-.062 0zm-2.58.026c-.057 0-.114-.001-.172-.001l.085-.085zm-5.364 16.909.185.185-.222.222c.01-.134.027-.272.037-.407zm.609-5.844.086-.086 1.084 1.084-1.472 1.472c.087-.818.197-1.644.302-2.47zm.494-3.428 1.113 1.113-1.504 1.504c.165-1.23.045-.645.391-2.617zm8.899 10.687c-.021 1.82-.046 3.884-.741 5.667-1.818 4.698-6.871 4.369-8.696.047-.78-1.858-.786-3.939-.656-5.96l.764-.764c.019-.011.043-.008.06-.025s.014-.041.025-.06l1.436-1.436c.098-.098.098-.256 0-.354s-.256-.098-.354 0l-1.302 1.302-.479-.479c.054-.659.114-1.321.181-1.987l.87.87c.098.098.256.098.354 0s.098-.256 0-.354l-.853-.853 1.522-1.522c.099.098.255.096.352 0 .097-.097.097-.254.001-.352l.258-.258c.098-.098.098-.256 0-.354s-.256-.098-.354 0l-.258.258-1.084-1.084 1.537-1.537c.102.063.2.08.302-.021.083-.083.08-.205.021-.302l.723-.723c.098-.098.098-.256 0-.354s-.256-.098-.354 0l-.708.708-1.364-1.363c.143-.766.294-1.527.45-2.281l1.061 1.061-.667.667c-.098.098-.098.256 0 .354s.256.098.354 0l.667-.667.575.575c.098.098.256.098.354 0s.098-.256 0-.354l-.575-.575 1.322-1.322c.098-.098.098-.256 0-.354s-.256-.098-.354 0l-1.322 1.322c-1.447-1.447-1.282-1.28-1.295-1.293.187-.905.374-1.828.542-2.753l1.181 1.18-1.386 1.386c-.098.098-.098.256 0 .354s.256.098.354 0l1.386-1.386 1.076 1.076c.098.098.256.098.354 0s.098-.256 0-.354l-1.076-1.076.739-.739c.098-.098.098-.256 0-.354s-.256-.098-.354 0l-.739.739-1.258-1.258h.115c.767.008 1.536.013 2.305.015.012.029.012.062.035.085l1.726 1.726c.098.098.256.098.354 0s.098-.256 0-.354l-1.453-1.453c1.498.002.661-.001 1.663-.006l.191.191-.605.605c-.098.098-.098.256 0 .354s.256.098.354 0l.605-.605.837.837c.098.098.256.098.354 0s.098-.256 0-.354l-.838-.837.198-.198c.289-.002.579-.003.867-.006.134-.001.269.002.403 0l.014.186c.403 5.711.342 11.529.283 17.156zm-1.744-18.334c.012-.008.028-.005.039-.016.098-.098.098-.256 0-.354l2.335-2.335c.098-.098.098-.256 0-.354s-.256-.098-.354 0l-2.335 2.335-.853-.853c-.078-.078-.19-.076-.284-.029l1.121-1.121c.098-.098.098-.256 0-.354s-.256-.098-.354 0l-2.296 2.296-.005-.005c-.098-.098-.256-.098-.353 0-.098.098-.098.256 0 .354l.005.005-.434.434c-3.884-.019-7.569-.097-12.232-.337-2.747-.129-5.738-.388-7.705-2.281l.554-.554c.107.101.256.088.347-.003.096-.096.095-.249.003-.347l1.633-1.634c.098-.098.098-.256 0-.353-.098-.098-.256-.098-.354 0l-.182.182c.045-.093.047-.203-.03-.28l-1.945-1.945 1.068-1.068c.098-.098.098-.256 0-.353-.098-.098-.256-.098-.354 0l-1.068 1.068-1.474-1.474h3.291l1.283 1.283-1.065 1.065c-.098.098-.098.256 0 .354s.256.098.354 0l1.065-1.065.954.954c.098.098.256.098.354 0s.098-.256 0-.354l-.954-.954 1.283-1.283h.419c.012.033.013.07.04.097l1.459 1.459-1.095 1.095c-.098.098-.098.256 0 .354s.256.098.353 0l1.095-1.095.716.715c.098.098.256.098.353 0 .098-.098.098-.256 0-.353l-.716-.716.844-.844c.098-.098.098-.256 0-.354s-.256-.098-.354 0l-.844.844-1.202-1.202h2.262l1.494 1.495-.55.55c-.098.098-.098.256 0 .354s.256.098.354 0l.55-.55.822.822c.098.098.256.098.354 0s.098-.256 0-.354l-.822-.823 1.494-1.495h.081c.008.011.005.026.015.036l1.55 1.549-.278.278c-.098.098-.098.256 0 .354s.256.098.354 0l.278-.278.119.119c.098.098.256.098.354 0s.098-.256 0-.353l-.119-.119 1.585-1.586h1c.005.057.022.114.065.157l.701.701-.823.823c-.098.098-.098.256 0 .354s.256.098.354 0l.823-.823 1.001 1.002c.098.098.256.098.354 0s.098-.256 0-.354l-1.001-1.002.702-.702c.043-.043.06-.1.065-.157h13.288c.276 0 .5-.224.5-.5s-.224-.5-.5-.5h-35.111c-1.13-7.954-2.27-15.921-3.412-23.876 14.954-.095 30.383-.18 54.025-.314-3.647 23.59-3.64 24.386-4.62 27.177l-1.215-1.215c-.098-.098-.256-.098-.354 0s-.098.256 0 .354l.369.369c-.001.001-.003.001-.004.002l-.613.613-.066-.066c-.098-.098-.256-.098-.354 0s-.098.256 0 .354l.114.114c-.004.068.016.137.068.189.049.049.113.073.177.073.004 0 .008-.005.012-.005l.633.633c.098.098.256.098.354 0s.098-.256 0-.354l-.585-.585.563-.564.085-.02.618.618c-.458 1.177-1.047 2.246-1.821 3.167l-.566-.566 1.163-1.163c.098-.098.098-.256 0-.354s-.256-.098-.354 0l-1.163 1.163-.707-.707.636-.636c.098-.098.098-.256 0-.354s-.256-.098-.354 0l-.636.636-.005-.005c-.098-.098-.256-.098-.354 0s-.098.256 0 .354l.005.005-1.343 1.343-1.191-1.192 1.077-1.077c.098-.098.098-.256 0-.354s-.256-.098-.354 0l-2.831 2.839-.495-.494 1.19-1.189c.098-.098.098-.256 0-.354s-.256-.098-.354 0l-1.293 1.293c-.036.012-.075.014-.103.043-.029.029-.031.068-.043.103l-1.378 1.378c-.092-.042-.199-.044-.276.032-.076.076-.075.183-.032.276l-1.608 1.608-1.191-1.191 1.002-1.002c.098-.098.098-.256 0-.354s-.256-.098-.353 0l-2.82 2.819-.883-.884c-.098-.098-.256-.098-.354 0s-.098.256 0 .354l.919.919c-.02.082-.014.168.05.232.095.094.15.07.232.05.054.054.115.079.182.079.064 0 .128-.024.177-.073.086-.086.083-.214.018-.311l1.476-1.476 1.415 1.414c.098.098.256.098.354 0 .044-.044.061-.101.066-.158l1.65-1.65.494.494-.126.126c-.098.098-.098.256 0 .354s.256.098.354 0l.126-.126.72.721c.098.098.256.098.354 0s.098-.256 0-.354l-.72-.721 1.252-1.252 1.191 1.191-.247.247c-.098.098-.098.256 0 .354s.256.098.354 0l.247-.247.147.148c.098.098.256.098.354 0s.098-.256 0-.354l-.147-.148 1.403-1.403.717.717c-.07.098-.073.23.015.318.085.085.197.102.318.015l.145.144c.098.098.256.098.354 0s.098-.256 0-.354l-.134-.134 1.343-1.343.591.591c-2.6 2.757-6.418 3.089-10.363 3.213-3.909.118-4.228.104-6.728.121zm-21.508-9.376h1.858l-.929.929zm6.603 0h2.281l-1.141 1.141zm3.756 0h2.464l-1.232 1.232zm4.786 0h1.01l-.505.505zm20.457 5.735 1.343-1.343.707.707-1.343 1.343zm-1.899-1.192 1.191 1.191-1.403 1.404-1.191-1.191zm-2.605.91.494.494-1.252 1.252-.494-.494z"/><path d="m47.539 27.097h5.93c.276 0 .5-.224.5-.5s-.224-.5-.5-.5h-5.93c-.276 0-.5.224-.5.5 0 .277.223.5.5.5z"/><path d="m31.375 54.519c-1.279.57-2.015 1.821-1.875 3.186v.001c.313 3.034 4.376 3.896 5.897 1.254.665-1.158.497-2.718-.4-3.707-.923-1.017-2.344-1.304-3.622-.734zm.904.759-.339.339c-.019.019-.017.046-.028.069l-.21-.211c.027-.014.054-.03.081-.043.151-.068.32-.119.496-.154zm-1.012.47 1.021 1.022-.573.573-.924-.925c-.017-.017-.041-.014-.06-.025.14-.257.325-.475.536-.645zm-.725 1.128.82.821-.574.574c-.028.028-.031.067-.042.102-.131-.24-.222-.5-.25-.769-.028-.266-.007-.507.046-.728zm3.988 1.586c-.639 1.112-2.468 1.638-3.572.232.003 0 .005.003.008.003.064 0 .128-.024.177-.073l.574-.574.299.3c.098.098.256.098.354 0s.098-.256 0-.354l-.299-.299.583-.583c.122.088.235.07.319-.014.088-.088.085-.221.014-.319l.085-.085c.098-.098.098-.256 0-.354s-.256-.098-.354 0l-.075.075-.417-.418c.023-.012.05-.01.069-.028l.524-.525.829.829c.098.098.256.098.354 0s.098-.256 0-.354l-.552-.552c.283.108.56.282.808.555.602.667.72 1.757.272 2.538z"/><path d="m18.915 15.59c.014-3.092.218-6.212.607-9.273.018-.137-.08-.262-.216-.279-.133-.016-.262.079-.28.217-.392 3.081-.597 6.222-.611 9.334-.005 1.312.07 2.793 1.041 3.786.097.099.255.101.353.004.099-.097.101-.255.004-.353-.838-.859-.903-2.225-.898-3.436z"/><path d="m31.561 6.501c-.133-.017-.258.091-.27.228l-1.175 14.006c-.012.137.09.258.228.27.007.001.014.001.021.001.128 0 .238-.099.249-.229l1.175-14.007c.012-.137-.09-.258-.228-.269z"/><path d="m26.041 11.258c-.128.004-.255.101-.261.238l-.394 8.51c-.007.138.1.255.238.262h.012c.133 0 .244-.104.25-.238l.393-8.51c.007-.138-.1-.256-.238-.262z"/><path d="m41.888 6.51c-.123-.025-.257.093-.268.23l-.863 11.802c-.01.138.094.258.231.268.006.001.012.001.019.001.129 0 .239-.101.249-.232l.863-11.802c.01-.137-.093-.257-.231-.267z"/><path d="m39.006 22.584c-.994-.081-1.096-1.339-1.066-2.323l.212-6.805c.004-.138-.104-.254-.242-.258-.003 0-.005 0-.008 0-.135 0-.246.106-.25.242l-.212 6.805c-.063 2.076.696 2.771 1.526 2.837.007.001.014.001.021.001.129 0 .238-.099.249-.229.01-.138-.093-.26-.23-.27z"/><path d="m48.7 11.669c.015 0 .03-.001.044-.004.136-.024.227-.154.202-.29-.401-2.236-.396-4.503.018-6.736.025-.136-.064-.267-.2-.292-.136-.028-.267.064-.291.2-.424 2.294-.431 4.621-.019 6.916.023.121.128.206.246.206z"/><path d="m52.502 9.208h.007c.135 0 .246-.108.25-.242l.108-3.649c.004-.139-.105-.254-.243-.258-.128.008-.253.104-.257.243l-.107 3.648c-.004.139.104.254.242.258z"/><path d="m13.625 6.513c-.138.003-.248.117-.245.255l.161 8.026c.003.137.114.245.25.245h.005c.138-.003.248-.117.245-.255l-.161-8.026c-.004-.138-.122-.256-.255-.245z"/></g></svg>