<svg id="Layer_1" enable-background="new 0 0 66 66" height="512" viewBox="0 0 66 66" width="512" xmlns="http://www.w3.org/2000/svg"><g><path d="m39.108 7.545c-4.701-3.827-6.88-3.568-11.416.118-21.441 17.387-25.045 19.448-26.245 21.938-1.507 3.132.896 6.098 4.309 4.917 1.173-.402 2.114-1.179 3.05-1.966.825 4.743-.408-3.635 2.618 16.157 1.434 9.573 4.348 11.96 13.761 12.146l17.912.354c6.707.124 8.576-1.494 10.323-7.512 4.74-16.266 5.203-17.613 5.466-20.307.644.439 1.407.92 2.279 1.139 2.567.68 4.411-1.33 3.687-3.796-1.077-3.542-8.555-9.135-25.744-23.188zm-8.265 6.315.576.577-1.586 1.585c-.09.09-.087.228-.011.326l-.877-.877c.633-.537 1.265-1.074 1.898-1.611zm-2.28 1.935.127.127-1.477 1.478-.248-.248c.531-.452 1.065-.905 1.598-1.357zm-6.882 6.04.307.307-.929.929c-.098.098-.098.256 0 .353.038.038.089.049.138.057-.039.011-.081.015-.112.046l-1.197 1.197-.848-.848 2.58-2.19c.007.054.02.108.061.149zm-4.809 3.882c.595-.505 1.19-1.01 1.785-1.515l.877.877-1.65 1.651zm-5.093 4.322.465.465-1.374 1.374-.577-.578c.496-.421.991-.841 1.486-1.261zm-1.406 5.296.972.972-.698.698c-.129-.846-.151-1.022-.274-1.67zm42.087 18.083c-1.615 5.565-3.1 6.91-9.343 6.791l-17.912-.354c-8.891-.175-11.428-2.199-12.792-11.296l-1.703-11.141c.031.013.057.037.09.037.064 0 .128-.024.177-.073l.721-.721.372.372c.097.097.255.098.354 0 .098-.098.098-.256 0-.354l-.372-.372 1.148-1.147c.098-.098.098-.256 0-.354s-.256-.098-.353 0l-1.148 1.148-1.501-1.501c-.177-.85-.384-1.802-.505-2.643.073-.062.145-.123.218-.185l.606.606-.445.445c-.098.098-.098.256 0 .354.099.099.257.096.353 0l.445-.445.783.783c.097.097.255.098.354 0 .098-.098.098-.256 0-.354l-.783-.783 1.374-1.374.576.576c.097.097.255.098.354 0 .098-.098.098-.256 0-.354l-1.366-1.365c.732-.622 1.465-1.243 2.197-1.864l.65.65-1.689 1.689c-.098.098-.098.256 0 .354.097.097.255.098.354 0l1.689-1.689.4.4c.097.097.255.098.354 0 .098-.098.098-.256 0-.354l-.4-.4 1.143-1.143c.098-.098.098-.256 0-.354s-.256-.098-.353 0l-1.143 1.143-.621-.621c.583-.495 1.165-.989 1.748-1.484l1.783 1.784c.099.099.257.097.353 0 .098-.098.098-.256 0-.354l-.389-.389 1.65-1.651.236.236c.097.097.255.098.354 0 .098-.098.098-.256 0-.354l-.236-.236 1.197-1.197c.098-.098.098-.256 0-.354-.038-.038-.089-.049-.138-.057.039-.011.081-.015.112-.046l.929-.929 1.178 1.179c.099.099.257.096.354 0 .098-.098.098-.256 0-.353l-1.178-1.179 1.145-1.145c.098-.098.098-.256 0-.354s-.256-.098-.354 0l-1.145 1.145-.307-.307c-.032-.032-.075-.037-.115-.048.62-.526 1.239-1.052 1.859-1.578l1.042 1.042-.722.722c-.098.098-.098.256 0 .354s.257.097.354 0l.721-.721.161.161c.097.097.255.098.354 0 .098-.098.098-.256 0-.354l-.161-.161 1.672-1.672c.098-.098.098-.256 0-.354s-.256-.098-.354 0l-1.672 1.672-1.013-1.013c.747-.634 1.494-1.269 2.242-1.903.06-.051.12-.102.18-.152l.277.277-.757.756c-.098.098-.098.256 0 .353.097.097.255.098.354 0l.756-.756.849.85c.099.099.257.096.353 0 .098-.098.098-.256 0-.354l-.849-.85 1.478-1.478.649.649c.097.097.255.098.354 0 .196-.196.001-.352-.184-.538.122.095.242.072.326-.011l1.586-1.585.664.664c.099.099.257.097.354 0 .098-.098.098-.256 0-.354l-.664-.664.139-.139c.098-.098.098-.256 0-.354-.097-.097-.255-.099-.353 0l-.139.139-.548-.548c.002-.002 1.304-1.106 1.306-1.109 7.741 7.545 16.532 14.163 25.424 20.315-.16 2.66-.653 4.054-5.498 20.68zm8.956-19.858c-2.07-.518-18.681-12.514-28.509-22.166-.184-.181-.477-.193-.674-.024-1.577 1.335-.886.752-1.887 1.6-.008.007-.02.004-.028.012-.005.005-.003.013-.008.019-1.521 1.289-3.042 2.577-4.556 3.866-19.118 16.199-18.833 16.194-20.323 16.705-2.557.891-4.211-1.19-3.083-3.537 1.042-2.16 4.789-4.441 25.975-21.596 4.065-3.304 5.776-3.682 10.153-.119 16.729 13.68 24.447 19.503 25.419 22.698.506 1.729-.67 3.02-2.479 2.542z"/><path d="m36.757 36.521c-.563-.905-1.627-.816-2.481-.743-1.896.16-5.283-.765-5.272 3.522.014 4.365.186 8.792.51 13.158.038.502.101 1.342.806 1.904 1.239.986 4.742.735 5.937-.519.677-.711.681-1.612.684-2.269.071-14.557.226-14.399-.181-15.053-.003 0-.003 0-.003 0zm-.9 15.989-.241-.24.312-.312c-.009.198-.031.383-.071.552zm-3.523-.344 1.236-1.236 1.339 1.34-1.236 1.235zm1.589-1.589.771-.771c.098-.098.098-.256 0-.354s-.256-.098-.353 0l-.771.771-1.098-1.098 1.167-1.167 2.001 2.001c.083.083.182.099.307.019l-.006 1.26-.677.677zm2.053-6.723-.049-.049.049-.049zm-.003.704-.008 1.635-.281-.281c.093-.098.094-.252-.002-.348s-.25-.095-.348-.002l-.58-.581.821-.821zm-.195 2.155c.049.049.112.073.177.073.002 0 .004-.003.007-.003l-.013 2.778-1.956-1.956 1.339-1.339zm-5.775-7.415c-.009-3.162 2.011-2.328 4.356-2.523.791-.066 1.325-.083 1.55.276.162.261.072 5.81.07 6.117-.068-.004-.137.016-.189.068l-.216.216-1.033-1.033c-.098-.098-.256-.098-.354 0s-.098.256 0 .354l1.033 1.033-.851.851c-.086-.029-.181-.027-.25.043-.078.077-.076.187-.03.28-.046.093-.047.203.03.28.103.103.163.072.25.043l.609.61-1.34 1.339-.41-.41c-.098-.098-.256-.098-.354 0s-.098.256 0 .354l.41.41-1.167 1.167-.065-.065c-.098-.098-.256-.098-.354 0s-.098.256 0 .354l1.516 1.516-1.236 1.236-.894-.894c-.098-.098-.256-.098-.354 0s-.098.256 0 .353l.894.894-.98.98c-.08-.219-.114-.472-.136-.763-.32-4.342-.491-8.745-.505-13.086zm.939 14.282c-.004-.003-.006-.008-.01-.011l1.049-1.049 1.389 1.388c-.722.07-1.86.125-2.428-.328zm3.139.225 1.182-1.181.31.31c.024.024.057.023.086.035-.041.063-.074.129-.128.185-.289.302-.792.516-1.45.651z"/><path d="m27.279 44.458c-.554-.484-1.478-.441-2.368-.4-1.568.07-2.747-.128-3.904.262-1.237.417-1.392 1.227-1.388 1.887.015 2.402.188 4.828.515 7.209.31 2.352 5.622 1.528 6.624.954.789-.451.795-1.12.798-1.479l.067-7.562c.002-.183.007-.565-.344-.871zm-.684 3.973-.653-.653.665-.665zm-5.976-2.231c-.002-.419.046-.71.708-.934.901-.304 2.116-.143 3.63-.21.593-.028 1.411-.065 1.663.154.004.026.003.08.003.108l-.01 1.081-1.025 1.025-.376-.376c-.098-.098-.256-.098-.354 0s-.098.256 0 .354l.376.376-1.137 1.136c-.056.056-.071.131-.062.204-.002.002-.005.001-.007.003-.098.098-.098.256 0 .354l1.732 1.733c.099.099.257.097.354 0 .098-.098.098-.256 0-.354l-1.625-1.626 1.098-1.097.805.805c.055.055.106.073.197.065l-.027 2.995c-.002-.002-.001-.005-.003-.007-.098-.098-.256-.098-.354 0l-.998.998-1.167-1.167.95-.95c.098-.098.098-.256 0-.354s-.256-.098-.354 0l-.95.95-.549-.549c-.098-.098-.256-.098-.354 0s-.098.256 0 .353l.549.549-1.906 1.905c-.257-.117-.276-.228-.305-.445-.317-2.337-.487-4.72-.502-7.079zm1.366 7.678 1.704-1.703 1.167 1.167-.574.574c-.706.05-1.602.077-2.297-.038zm4.277-.376c-.248.142-.662.251-1.189.329l.166-.166c.087.029.148.06.25-.043.069-.069.072-.163.043-.25l1.028-1.028-.005.54c-.002.313-.015.458-.293.618z"/><path d="m46.515 39.06c.026-7.313.17-8.13-.192-8.925-.7-1.533-2.193-.884-3.823-.948-3.09-.12-3.968 1.453-3.962 4.587.014 5.949.185 11.982.51 17.932.037.682.094 1.713.749 2.426.679.739 1.759.885 2.765.812 1.529-.108 2.663-.629 3.277-1.509.627-.899.632-2.063.636-2.913l.04-11.197c.053-.084.053-.182 0-.265zm-2.71 11.954.651-.651.59.59-.651.65zm.236.944-.727.727-.59-.59.727-.727zm1.293-5.236c.042.042.097.058.153.063l-.007 1.965-1.11-1.11.941-.941zm.091 2.681c.015.015.036.012.053.022l-.004 1.092c0 .047-.002.1-.002.149-.005 0-.008-.005-.013-.006l-2.054-2.054.612-.612zm.064-3.233-1.251-1.251 1.066-1.066c.062-.062.07-.145.054-.224l.14.14zm-.856-3.971.873-.873-.006 1.74zm.883-3.458-.005 1.307-.856-.855.656-.656zm-5.979-4.969c-.007-2.949.748-3.667 2.923-3.586 2.04.085 2.618-.365 2.952.365.215.47.109 6.704.107 7.221-.074-.011-.15.002-.207.059l-.504-.504c-.098-.098-.256-.098-.354 0s-.098.256 0 .354l.504.503-1.118 1.118c-.098.098-.098.256 0 .354.097.097.255.098.353 0l.108-.108 1.207 1.206-.001.183c-.098-.078-.238-.081-.329.01l-.9.9c-.098-.096-.254-.096-.351.001s-.097.254-.001.351l-.307.307c-.098.098-.098.256 0 .354.097.097.255.098.354 0l.306-.306.895.895c-.08-.017-.162-.008-.224.053l-1.066 1.066-.087-.087c-.098-.098-.256-.098-.354 0s-.098.256 0 .354l.087.087-.131.131c-.098.098-.098.256 0 .354s.256.097.354 0l.131-.131 1.073 1.073-.941.941-.262-.262c-.098-.098-.256-.098-.354 0s-.098.256 0 .354l.262.262-.964.964c-.098.098-.098.256 0 .354.096.096.252.1.352.001l1.051 1.051-.651.65-1.264-1.264c-.098-.098-.256-.098-.354 0s-.098.256 0 .354l1.264 1.264-.727.727-.679-.679c-.098-.098-.256-.098-.353 0-.098.098-.098.256 0 .354l.679.679-.853.853-.437-.437c-.098-.098-.256-.098-.354 0s-.098.256 0 .354l.437.437-.207.207c-.021-.02-.051-.033-.071-.055-.381-.415-.448-1.09-.487-1.804-.322-5.936-.493-11.951-.507-17.882zm1.627 19.883.231.231c-.129-.027-.243-.067-.352-.11zm1.326.291c-.128.009-.238.003-.356.003-.072-.117-.515-.545-.617-.647l.853-.853.59.59-.218.218c-.098.098-.098.256 0 .354.097.097.255.098.354 0l.218-.218.308.308c.017.017.041.014.06.025-.403.122-.823.193-1.192.22zm1.527-.345c.031-.088.029-.184-.041-.255l-.308-.308.727-.727.386.385c.084.084.186.1.309.019-.261.456-.587.683-1.073.886zm1.18-1.105c-.006-.055-.021-.11-.063-.152l-.386-.386.66-.66c.012.009.026.01.039.016-.025.411-.097.818-.25 1.182z"/><path d="m52.394 22.566.404-.404c.098-.098.098-.256 0-.354-.097-.097-.255-.099-.353 0l-.427.426-1.118-.988.429-.429c.098-.098.098-.256 0-.353-.097-.097-.255-.098-.354 0l-.451.451-1.198-1.058.51-.51c.098-.098.098-.256 0-.354s-.256-.098-.354 0l-.532.532-.982-.867.302-.302c.098-.098.098-.256 0-.354s-.256-.098-.354 0l-.324.324-.765-.676.571-.571c.098-.098.098-.256 0-.354s-.256-.098-.353 0l-.593.593-1.001-.884.338-.338c.098-.098.098-.256 0-.354s-.256-.098-.354 0l-.36.36-1.375-1.214.71-.711c.098-.098.098-.256 0-.353-.098-.098-.256-.098-.354 0l-.732.733-1.178-1.04.305-.305c.098-.098.098-.256 0-.353-.097-.097-.255-.099-.354 0l-.327.327-2.278-2.012c-.103-.092-.261-.081-.353.022-.091.104-.081.262.023.353l2.254 1.99-.785.784c-.098.098-.098.256 0 .354.097.097.255.098.354 0l.807-.806 1.178 1.04-.413.413c-.098.098-.098.256 0 .354.097.097.255.098.354 0l.435-.435 1.375 1.214-.274.274c-.098.098-.098.256 0 .353.097.097.255.098.354 0l.296-.296 1.001.884-.577.577c-.098.098-.098.256 0 .354.097.097.255.098.354 0l.599-.599.765.675-.458.459c-.098.098-.098.256 0 .353.097.097.255.098.354 0l.48-.48.982.867-.557.557c-.098.098-.098.256 0 .353.097.097.255.098.354 0l.579-.579 1.198 1.058-.575.574c-.098.098-.098.256 0 .354.099.099.257.097.354 0l.597-.596 1.119.988-.477.477c-.098.098-.098.256 0 .354.099.099.257.096.354 0l.499-.499 1.101.972c.1.09.258.083.353-.022.091-.104.081-.262-.022-.353z"/><path d="m22.051 14.976-.779.696-.223-.223c-.099-.098-.257-.097-.354 0-.098.098-.098.256 0 .354l.204.204-1.35 1.207-.365-.365c-.097-.097-.255-.099-.354 0-.098.098-.098.256 0 .354l.345.345-1.305 1.167-.255-.255c-.099-.098-.257-.097-.354 0-.098.098-.098.256 0 .354l.235.235-1.239 1.107-.72-.72c-.098-.098-.256-.098-.353 0-.098.098-.098.256 0 .354l.7.7-1.485 1.327-.727-.727c-.098-.098-.256-.098-.354 0s-.098.256 0 .353l.707.707-1.529 1.366-.647-.647c-.098-.098-.256-.098-.353 0-.098.098-.098.256 0 .354l.627.627-1.271 1.135c-.102.092-.111.25-.019.353.094.104.251.111.354.02l1.291-1.154.376.376c.097.097.255.098.353 0s.098-.256 0-.354l-.356-.356 1.529-1.367.252.252c.097.097.255.098.354 0 .098-.098.098-.256 0-.353l-.233-.233 1.484-1.327.323.323c.097.097.255.098.354 0 .098-.098.098-.256 0-.353l-.303-.304 1.239-1.107.544.544c.096.096.255.099.354 0 .098-.098.098-.256 0-.353l-.524-.524 1.305-1.166.41.41c.099.099.257.096.354 0 .098-.098.098-.256 0-.354l-.39-.39 1.351-1.207.418.418c.096.096.255.099.353 0 .098-.098.098-.256 0-.354l-.398-.398.759-.678c.103-.092.111-.25.02-.353-.095-.104-.253-.112-.355-.02z"/></g></svg>