<svg id="Layer_1" enable-background="new 0 0 66 66" height="512" viewBox="0 0 66 66" width="512" xmlns="http://www.w3.org/2000/svg"><g><path d="m51.223 51.68c6.653.337 10.604-1.118 11.493-11.295v-.001c.761-8.733.92-17.581.472-26.299-.476-9.23-3.892-10.857-11.311-10.885l-37.62.15c-7.627.029-10.807 2.001-11.089 11.536-.682 23.924-1.193 26.264.823 29.849 1.524 2.722 4.551 4.686 8.303 5.388 3.974.754 5.773-.212 13.567.246.153 3.624-3.655 5.486-6.31 6.857-3.831 1.952-2.562 4.49-.753 5.162 1 .386 2.017.303 4.375.309 23.416.055 23.608.396 24.594-.565 1.026-.992.449-2.766-.727-3.529-1-.649-2.171-.729-3.181-1.074-2.24-.761-4.188-3.157-3.733-6.393zm.934-.96.863-.863.866.866c-.588.024-1.17.018-1.729-.003zm3.045-3.046 1.364 1.364-.84.84c-.098.098-.098.256 0 .354s.256.098.354 0l.84-.84.515.515c-.953.502-2.038.719-3.131.796.053-.095.056-.212-.025-.292l-.906-.906zm2.675 1.967-.604-.604 1.364-1.364.66.66c-.402.507-.872.949-1.42 1.308zm2.839-4.046c.098-.098.098-.256 0-.354s-.256-.098-.353 0l-.072.072-1.215-1.215 1.406-1.406.63.631c.049.049.113.073.177.073.006 0 .011-.007.018-.007-.317 1.647-.832 3.253-1.71 4.537l-.606-.606zm-48.237 3.545c-3.461-.647-6.237-2.432-7.616-4.895-1.859-3.306-1.374-5.529-.696-29.33.265-8.967 3.018-10.539 10.092-10.564l37.62-.15c7.04.005 9.872 1.445 10.309 9.936.446 8.672.289 17.474-.469 26.161-.074.841-.174 1.723-.323 2.604l-.561-.561.097-.097c.098-.098.098-.256 0-.354s-.256-.098-.354 0l-.097.097-.714-.714c-.098-.098-.256-.098-.354 0s-.098.256 0 .354l.714.714-1.858 1.858c-.098.098-.098.256 0 .353.098.098.256.098.353 0l.099-.099 1.215 1.215-1.3 1.3-1.54-1.54c-.098-.098-.256-.098-.354 0s-.098.256 0 .353l1.54 1.54-1.364 1.364-1.364-1.364 1.103-1.103c.098-.098.098-.256 0-.353-.098-.098-.256-.098-.354 0l-1.132 1.132c-.088-.03-.183-.028-.253.042s-.072.165-.042.253l-1.856 1.858-1.095-1.095c-.098-.098-.256-.098-.354 0s-.098.256 0 .354l1.095 1.095-.968.968c-.063.063-.07.146-.052.227-.125-.006-.253-.011-.374-.017l-2.796-.138.982-.983.788.788c.098.098.256.098.354 0s.098-.256 0-.354l-.788-.788 1.842-1.843c.098-.098.098-.256 0-.354s-.256-.098-.353 0l-1.843 1.843-.586-.586c-.098-.098-.256-.098-.354 0s-.098.256 0 .354l.586.586-1.222 1.222c-.023.023-.022.055-.034.083-11.437-.564-17.987-.87-21.5-1.121-8.35-.515-9.997.487-13.869-.251zm26.566 2.879c-.01-.016-.007-.037-.021-.051l-.91-.909.024-.024c.325.016.649.033.975.049-.12.882-.062.653-.068.935zm-3.518-.443.639-.639c.393.019.785.039 1.179.058l.063.063-1.199 1.199zm-.58-.579c-.098-.098-.256-.098-.354 0s-.098.256 0 .354l.226.226-1.462 1.462c-.004-.004-.002-.011-.006-.014l-.901-.901.522-.522c.098-.098.098-.256 0-.354s-.256-.098-.354 0l-.522.522-1.089-1.088c1.493.077 2.989.149 4.484.223l-.319.319zm-4.667 2.588c-.032.032-.037.075-.048.116l-1.386-1.386c.49-.534.991-1.063 1.503-1.586l1.394 1.394zm-.511-2.973c-.433.448-.86.896-1.277 1.35l-1.526-1.526c1.001.066 1.595.107 2.803.176zm-2.924.409 1.31 1.311c-1.566 1.719-1.71 1.883-2.215 2.426l-.367-.368c-.034-.034-.08-.041-.123-.051.814-1.001 1.29-2.226 1.395-3.318zm-4.257 5.693.354.354-.969.97-.623-.623c.419-.223.833-.455 1.238-.701zm-2.581 1.401c.304-.156.56-.287.89-.459.005.007.003.016.009.022l.715.714-1.803 1.804-1.168-1.168c.321-.309.768-.613 1.357-.913zm-1.689 1.289 1.145 1.145-.702.702c-.699-.454-.935-1.135-.443-1.847zm25.218-.93c1.001.34 2.166.453 2.959.967.63.408 1.105 1.461.576 1.97-.001.001-.002.002-.003.003-.532.52-.265.338-23.894.282-1.949-.005-3.076.08-3.933-.218l.575-.575.302.302c.098.098.256.098.353 0 .098-.098.098-.256 0-.354l-.302-.302 1.803-1.804.514.514c.098.098.256.098.354 0s.098-.256 0-.354l-.514-.514.969-.97.794.794c.049.049.113.073.177.073s.128-.024.177-.073c.098-.098.098-.256 0-.353l-.794-.794 1.343-1.343c.098-.098.098-.256 0-.354s-.256-.098-.354 0l-1.342 1.343-.272-.272c.787-.51 1.52-1.094 2.154-1.797.012.034.013.07.04.097l.375.375c-.37.393-.739.787-1.122 1.17-.098.098-.098.256 0 .354s.256.098.354 0c.384-.384.753-.777 1.122-1.17l.967.967c.098.098.256.098.354 0s.098-.256 0-.354l-.974-.974c.52-.56.664-.723 2.215-2.426l1.38 1.38c.098.098.256.098.354 0 .034-.033.04-.078.05-.121.113.102.254.082.341-.005l1.463-1.463.901.901c.049.049.113.073.177.073.001 0 .002-.001.003-.001.012.029.012.062.036.086.098.098.256.098.354 0l1.606-1.606 1.09 1.09c.098.098.256.098.353 0 .098-.098.098-.256 0-.354l-.055-.055 1.199-1.199.909.909c.098.098.256.098.354 0 .018-.018.016-.044.027-.066.048 2.722 1.892 5.34 4.485 6.221z"/><path d="m57.286 42.116c.278 0 .507-.229.5-.514-.283-10.496.284-22.261 0-32.789-.007-.267-.223-.481-.491-.486-15.895-.302-32.803.301-48.626 0-.349.039-.507.244-.509.495-.024 2.47-.019 4.952-.001 7.427-.009.034-.024.066-.026.102-.003.062.009.121.027.177.065 8.522.288 16.615.207 24.878-.003.278.223.505.5.505 16.147.005 32.365.199 48.419.205zm-29.859-32.167-.57-.571c.385-.003.766-.006 1.15-.009zm-3.227.315-.867-.867c.582-.003 1.163-.006 1.744-.009zm-2.198-.86-1.054 1.054-1.05-1.05c.702-.001 1.401-.001 2.104-.004zm-3.545.002-.809.809-.811-.811c.54.002 1.08.002 1.62.002zm-5.346 1.513-1.556-1.556c.71.009 1.418.019 2.132.024l.479.478zm1.29-1.524c.078.001.154.002.231.003l-.114.114zm-3.562-.04 1.984 1.984c.049.049.113.073.177.073.002 0 .003-.002.004-.002.119.097.247.076.332-.009l1.182-1.182 1.417 1.417c.098.098.256.098.354 0s.098-.256 0-.354l-1.417-1.417.463-.463c.264.001.531 0 .795.001l1.166 1.165-.381.382c-.098.098-.098.256 0 .353.098.098.256.098.354 0l.381-.382 1.158 1.158c.098.098.256.098.354 0s.098-.256 0-.354l-1.158-1.158.925-.925c.066-.066.071-.154.048-.237h.275c.012.035.014.073.042.101l1.303 1.303-.43.43c-.098.098-.098.256 0 .354s.256.098.354 0l.43-.43.038.038c.098.098.256.098.354 0s.098-.256 0-.354l-.038-.038 1.369-1.37 1.244 1.244c.01.01.024.007.035.014.011.042.016.086.049.118.098.098.256.098.354 0l1.231-1.231c.056-.056.071-.13.062-.204.17-.001.339-.002.509-.003l1.202 1.203c.098.098.256.098.354 0 .07-.07.072-.165.042-.253l.793-.792.827.827c.098.098.256.098.354 0s.098-.256 0-.353l-.659-.649c9.542-.08 18.784-.2 27.727-.042.057 2.339.071 4.754.065 7.189-.046-.014-.091-.029-.141-.031-15.781.365-31.78.168-47.565-.581 0-.056 0-.113-.001-.169l.412-.412.19.19c.098.098.256.098.354 0s.098-.256 0-.354l-.19-.19 1.504-1.504c.098-.098.098-.256 0-.354s-.256-.098-.354 0l-.267.267-1.464-1.464c.041.026.083.054.13.054.064 0 .128-.024.177-.073l.624-.624.381.381c.098.098.256.098.353 0 .098-.098.098-.256 0-.354l-.381-.381.657-.657c.098-.098.098-.256 0-.354s-.256-.098-.354 0l-.657.657-1.116-1.115c0-.034 0-.069 0-.103.557.009 1.125.011 1.684.019zm-1.688 5.543.063.063-.062.062c0-.042 0-.083-.001-.125zm-.003-.711c-.002-.59-.002-1.179-.002-1.77l1.306 1.306-.884.884zm.126-2.348-.127-.127c.001-.523.002-1.047.005-1.569l.765.765-.624.624c-.084.085-.081.211-.019.307zm-.112 5.058c15.846.75 31.773.944 47.583.579.042-.001.078-.016.117-.027-.035 7.985-.274 16.086-.09 23.666-15.809-.01-31.678-.196-47.402-.206.068-8.002-.14-15.756-.208-24.012z"/><path d="m34.756 14.932c.41-.346.704-.805.827-1.293.78-3.103-3.244-3.599-4.767-1.885-.668.751-.663 1.744.014 2.725.836 1.212 2.667 1.514 3.926.453zm-3.193-2.514c.887-1 3.538-.974 3.049.977-.072.286-.25.562-.501.772-.783.661-1.936.501-2.458-.257-.411-.594-.441-1.096-.09-1.492z"/><path d="m34.446 14.829c.696-.494 1.107-1.423 1.024-2.311-.247-2.62-3.86-2.2-4.771.011-.253.612-.241 1.248.032 1.743.602 1.094 2.478 1.437 3.715.557zm-2.821-1.919c.534-1.298 2.709-1.794 2.851-.298.049.526-.207 1.116-.608 1.402-.794.563-1.974.297-2.26-.225-.124-.224-.118-.553.017-.879z"/><path d="m33.758 15.213c.953-.382 1.621-1.227 1.701-2.155.181-2.093-2.229-2.7-3.749-1.811-.676.393-1.126 1.111-1.173 1.871-.099 1.583 1.457 2.805 3.221 2.095zm-1.545-3.103c.902-.524 2.35-.294 2.249.862-.047.546-.48 1.074-1.076 1.314-1.042.412-1.908-.203-1.852-1.106.027-.425.293-.845.679-1.07z"/><path d="m25.673 27.728 14.638.235h.008c.272 0 .496-.219.5-.492.004-.276-.216-.503-.492-.508l-14.638-.235c-.285.028-.503.217-.508.492-.004.277.216.503.492.508z"/><path d="m40.363 31.673-14.705-.329c-.004 0-.008 0-.011 0-.271 0-.494.217-.5.488-.006.276.213.506.489.512l14.705.329h.011c.271 0 .494-.217.5-.489.006-.275-.213-.505-.489-.511z"/><path d="m25.955 36.89h.008l14.089-.24c.276-.005.496-.232.492-.509-.005-.275-.265-.465-.508-.491l-14.089.24c-.276.005-.496.232-.492.509.005.272.228.491.5.491z"/><path d="m25.573 27.761c.026.639.01.664-.057 2.634-.05 1.589-.1 3.168-.16 4.747-.068 1.838.561 2.596 2.632 2.659.214.003 9.645.195 9.856.199 1.632.041 2.473-.567 2.411-2.604-.009-.368-.171-7.382-.189-7.748 2.166-.212 2.85-1.925.807-3.806-2.394-2.203-4.792-4.182-7.785-4.182-1.581-.028-3.259.598-4.848 1.756-1.348.982-2.465 2.232-3.606 3.51-1.395 1.543-.636 2.811.939 2.835zm3.2.057c-.017.01-.039.007-.054.023l-.533.533-.702-.702c.333-.018.77-.041 1.141-.055.027.069-.023.03.148.201zm-2.196 2.266-.048-.048c.035-1.006.07-1.56.038-2.319.081-.005.162-.007.243-.012l1.022 1.022-1.184 1.184c-.047.048-.07.11-.071.173zm-.155 3.109 1.056 1.056-1.127 1.127c.001-.066.001-.131.003-.197.026-.66.046-1.324.068-1.986zm4.127 3.659c.009-.126.045-2.715.046-2.842.022-1.159.282-1.228 1.052-1.249l2.499-.07c1.422-.039 1.268.103 1.349 4.26-.1-.002-4.86-.097-4.946-.099zm7.315.149-1.369-.028c-.077-3.932.186-5.316-2.371-5.282l-2.502.07c-1.342.037-1.994.545-2.026 2.234-.003.184-.034 2.656-.048 2.836-.514-.012-1.028-.023-1.536-.031-.747-.023-1.443-.055-1.606-.771l1.427-1.427.031.031c.098.098.256.098.354 0s.098-.256 0-.354l-.031-.031 1.387-1.387c.098-.098.098-.256 0-.354s-.256-.098-.354 0l-1.387 1.387-1.32-1.32c-.019-.019-.046-.017-.069-.028.02-.61.042-1.217.062-1.829l1.451 1.451c.098.098.256.098.354 0s.098-.256 0-.354l-1.481-1.481c.063-.001.125-.024.173-.072l1.184-1.184.428.428c.098.098.256.098.354 0s.098-.256 0-.354l-.428-.428.533-.533c.015-.015.012-.037.022-.054l1.129 1.129c.098.098.256.098.354 0s.098-.256 0-.354l-1.327-1.327c1.264-.039.444-.023 2.194-.037l.142.142-.857.858c-.098.098-.098.256 0 .354s.256.098.354 0l.857-.857 1.298 1.298c.098.098.256.098.353 0 .098-.098.098-.256 0-.354l-1.298-1.298.152-.152c.801.001-.304-.023 2.361.026 0 .002.002.003.002.005l-.978.978c-.098.098-.098.256 0 .354s.256.098.354 0l.939-.939.927.927c.098.098.256.098.354 0s.098-.256 0-.354l-.927-.927.033-.033c1.352.03 2.584.068 3.563.103.002.043.181 7.698.183 7.741v.004c.045 1.513-.393 1.601-1.394 1.578zm-12.422-11.477c1.045-1.17 2.127-2.379 3.388-3.299.981-.715 2.507-1.565 4.225-1.565h.031c2.635 0 4.868 1.854 7.111 3.918 1.358 1.25 1.201 2.091-.662 2.112-1.868 0-7.412-.385-13.596.06-1.235.094-1.314-.322-.497-1.226z"/><path d="m33.077 42.851c-2.721.071-4.05 3.801-1.832 5.451 1.026.763 2.561.738 3.571-.063.972-.772 1.321-2.22.849-3.522-.429-1.18-1.425-1.882-2.588-1.866zm-1.144 1.457-.238.238c.072-.084.152-.163.238-.238zm-.345 2.965c-.151-.163-.258-.344-.331-.532l.432.432zm2.606.184c-.61.483-1.537.514-2.201.118l.818-.818c.098-.098.098-.256 0-.354s-.256-.098-.353 0l-.415.416-.906-.906c.022-.351.107-.61.237-.875l1.059 1.059c.098.098.256.098.354 0s.098-.256 0-.354l-.791-.791.648-.648.261.261c-.032.088-.031.186.04.256.102.102.167.073.256.04l.354.354c.098.098.256.098.354 0s.098-.256 0-.353l-.326-.326.115-.115c.098-.098.098-.256 0-.354s-.256-.098-.354 0l-.115.116-.232-.232.076-.077c.006-.006.004-.015.009-.021.007 0 .013-.002.02-.002.016-.001.032-.001.048-.001 1.024 0 1.441.843 1.575 1.209.268.739.216 1.805-.531 2.398z"/></g></svg>