<svg id="Layer_1" enable-background="new 0 0 66 66" height="512" viewBox="0 0 66 66" width="512" xmlns="http://www.w3.org/2000/svg"><g><path d="m61.554 30.129c0-.001 0-.002.001-.003.436-1.938-1.076-3.619-2.439-4.867-6.348-5.835-12.694-11.661-19.049-17.494-5.246-4.818-7.662-6.7-13.364-1.829-2.129 1.811-4.415 3.821-6.939 6.096-.053-1-.106-1.999-.149-2.999.909-.328 1.607-.949 1.914-1.707.001-.001.001-.002.001-.003.624-1.558-.472-3.25-1.846-3.925-1.35-.659-2.932-.587-4.202-.529-4.536.212-6.593.044-7.792 1.624-.693.903-.744 2.201-.124 3.154.444.692 1.259 1.144 2.446 1.4.503 3.657.535 7.231-.002 11.03-.049.398-.083.786-.024 1.153-3.661 3.594-4.635 4.509-5.239 5.909-.6 1.38-.478 2.903.307 3.88 1.006 1.27 2.847 1.417 4.24.924l-.328 21.656c-.092 5.584 2.007 6.323 6.14 6.478l.342.343c.097.097.255.098.354 0 .087-.087.084-.218.016-.316 30.683 1.148 29.365 1.152 31.112 1.021 2.643 2.438 5.42 2.437 7.085 1.329 0 0 .001 0 .001-.001 2.017-1.352 2.794-4.803.661-7.874.267-1.557.199-1.133 1.167-22.241 2.839 1.104 5.279-.334 5.71-2.209zm-1.852-2.819c.443.553.774 1.15.879 1.763l-1.297-1.296.383-.383c.023-.023.023-.055.035-.084zm-48.705-7.068c.083-1 .837-5.174.052-11.021 2.613.283 6.467.228 7.572.054.054 1.207.118 2.415.184 3.621-2.54 2.305-5.352 4.962-7.808 7.346zm-2.592-13.137c-.386-.597-.354-1.439.079-2.005.872-1.149 2.638-1.027 7.044-1.233 1.218-.053 2.597-.117 3.717.43 1.762.865 2.207 3.255-.276 3.888-1.479.387-6.508.266-8.434-.041h-.001c-1.103-.185-1.798-.524-2.129-1.039zm6.285 20.218-.94.94.94-1.009zm-4.388 4.146c.077-.046.147-.104.222-.153l1.226 1.226-.571.571-.889-.888zm8.264 24.262c.013-.013.01-.032.019-.047.012.028.011.06.034.083l1.078 1.078-1.521 1.521c-.098.098-.098.256 0 .353.097.097.255.098.354 0l1.521-1.521 1.418 1.418-.487.487c-.052.052-.072.121-.068.189l-2.455-.092c.016-.079.007-.161-.054-.223l-1.425-1.425c-.046-.046-.107-.067-.167-.069zm7.58 3.682c.035.017.067.043.105.043.065 0 .128-.024.177-.073l2.037-2.037 1.123 1.123-.856.856c-.072.072-.072.17-.039.259l-2.468-.092zm4.867-.227-.718-.717 1.935-1.934 1.897 1.897-.377.377c-.098.098-.098.256 0 .354.099.099.257.096.354 0l.377-.377.378.378c.097.097.255.098.354 0 .098-.098.098-.256 0-.354l-.378-.378.79-.79 1.578 1.578c-.066.097-.069.226.017.312.084.084.189.101.312.017l.38.38-8.75-.327.779-.779.718.717c.097.097.255.098.354 0 .098-.098.098-.256 0-.354zm-8.086.182-.751-.751 1.233-1.233 2.081 2.081zm-.734-.027-.714-.027.344-.344zm-5.636-1.601c.003.06.023.121.069.167l1.273 1.273-2.682-.1zm36.902 3.882c-1.349.898-3.726.824-6.008-1.366-1-.95-1.748-1.993-5.282-6.519-.244-.308-.51-.653-.732-1.021 1.886-1.049 3.691-2.842 4.648-4.538.949.538 1.928 1.443 2.804 2.255 1.843 1.705 3.556 2.737 4.864 4.561 1.925 2.624 1.327 5.54-.294 6.628zm-18.791-14.203c-5.004 2.161-11.409.397-14.587-4.014-2.211-3.064-2.771-7.235-1.498-11.156 2.291-7.061 9.108-9.643 14.958-7.766 4.213 1.372 7.558 5.222 8.323 9.58.948 5.403-2.251 11.26-7.196 13.356zm5.83-3.573c.695.393 1.387 1.09 1.762 1.778-.466.448-2.355 2.268-3.355 3.236-.392-.256-.941-1.035-1.124-2.142.929-.729 1.895-1.699 2.717-2.872zm-1.599 6.406c1.821-1.738 4.414-4.443 5.201-4.816.896-.448 1.614.08 1.538 1.021-.001.005-.001.009-.001.013-.112 2.001-4.678 6.489-6.872 5.878-1.178-.342-.717-1.284.134-2.096zm14.927 3.241c-.799-.892-6.028-5.497-7.345-6.215.742-2.325-1.349-3.991-3.465-2.331-.471-.772-1.206-1.494-1.987-1.944 1.68-2.799 2.352-6.086 1.82-9.112-.827-4.712-4.443-8.875-9-10.359-6.397-2.047-13.758.83-16.217 8.409-1.371 4.223-.758 8.727 1.639 12.05 3.673 5.101 11.676 7.232 17.624 3.338.212.834.621 1.693 1.287 2.227-1.498 1.45-1.618 3.197.31 3.754.69.193 1.384.078 2.054-.174.261.447.556.865.837 1.22 1.777 2.276 3.868 4.993 4.607 5.823-1.137.025-2.106-.027-7.343-.223l-.749-.749 1.676-1.676 1.966 1.966c.097.097.255.098.354 0 .098-.098.098-.256 0-.354l-1.966-1.966 1.123-1.123c.098-.098.098-.256 0-.353-.098-.098-.256-.098-.354 0l-1.123 1.123-.303-.303c-.098-.098-.256-.098-.354 0s-.098.256 0 .354l.303.303-1.676 1.677-1.566-1.566 1.546-1.545c.098-.098.098-.256 0-.354-.097-.097-.255-.099-.353 0l-1.546 1.545-.118-.118c-.098-.098-.256-.098-.354 0s-.098.256 0 .354l.118.118-.79.79-2.296-2.295c-.098-.098-.256-.098-.354 0s-.098.256 0 .353l.045.045-1.935 1.934-1.123-1.123.851-.851c.098-.098.098-.256 0-.354s-.256-.098-.354 0l-.851.852-.34-.34c-.098-.098-.256-.098-.354 0s-.098.256 0 .354l.34.34-2.037 2.037c-.078.078-.076.188-.03.282l-2.282-2.282 2.357-2.357c.098-.098.098-.256 0-.354s-.256-.098-.353 0l-2.357 2.357-.82-.82c-.098-.098-.256-.098-.354 0s-.098.256 0 .353l.82.82-1.233 1.234-1.418-1.418 1.466-1.466c.098-.098.098-.256 0-.354s-.256-.098-.354 0l-1.466 1.466-1.078-1.078c-.098-.098-.256-.098-.354 0-.013.013-.01.032-.019.047-.012-.028-.011-.06-.034-.083-.098-.098-.256-.098-.354 0l-3.549 3.549-.266-.266c-.098-.098-.256-.098-.354 0s-.098.256 0 .354l.01.01c-3.405-.206-4.148-1.655-4.087-5.41l.314-20.693.546.546-.317.317c-.098.098-.098.256 0 .353.099.099.257.097.354 0l.317-.317.662.662c.097.097.255.098.353 0s.098-.256 0-.354l-.662-.661.596-.596c.089.038.161.073.269-.035.074-.074.074-.178.035-.269l1.194-1.194c.098-.098.098-.256 0-.354-.097-.098-.255-.098-.354 0l-1.17 1.169-1.161-1.161c.55-.416 1.001-.85 1.475-1.343-.007.072.009.144.064.199.097.097.255.098.354 0l.009-.009.564.564c.097.097.255.098.354 0 .098-.098.098-.256 0-.354l-.564-.564 1.492-1.492v1.113c0 .138.112.25.25.25s.25-.112.25-.25v-1.651c.04-.074.04-.152 0-.226v-.548l2.043-2.192.866.866-1.179 1.179c-.098.098-.098.256 0 .354.097.097.255.098.354 0l1.179-1.179.117.117c.097.097.255.098.354 0 .098-.098.098-.256 0-.354l-.117-.117 1.286-1.286c.118.099.249.077.334-.008.092-.092.09-.236.008-.334l.304-.305c.098-.098.098-.256 0-.354s-.256-.098-.354 0l-.299.299-.655-.654c-.027-.028-.065-.029-.099-.041l1.398-1.398v1.004c0 .138.112.25.25.25s.25-.112.25-.25c0-.157.035-1.888-.064-2.008l2.788-2.991.987.987-1.249 1.249-.624-.625c-.097-.097-.255-.099-.353 0-.098.098-.098.256 0 .354l.624.625-.81.81c-.098.098-.098.256 0 .354.097.097.255.098.354 0l.81-.81.155.155c.099.099.257.096.354 0 .098-.098.098-.256 0-.354l-.155-.155 2.073-2.073c.098-.098.098-.256 0-.354s-.256-.098-.354 0l-.47.47-.999-.999 1.285-1.378c.012.024.01.052.03.072l.111.111c-.073.098-.075.232.013.321.083.083.198.105.321.013l.648.648c.097.097.255.098.353 0s.098-.256 0-.354l-.638-.638 1.157-1.157 1.069 1.069c.099.099.257.097.354 0 .098-.098.098-.256 0-.354l-1.202-1.203c-.011-.02-.008-.044-.025-.061s-.041-.014-.061-.025l-.286-.286c.37-.33.757-.634 1.163-.904l1.41 1.41-.687.687c-.098.098-.098.256 0 .353.097.097.255.098.354 0l.734-.734c.005 0 .009.006.014.006.065 0 .128-.024.177-.073.053-.053.072-.122.068-.191l.988-.988.902.902c-.043.093-.045.201.032.277.107.107.184.075.277.032l.334.334c.097.097.255.098.354 0 .098-.098.098-.256 0-.353l-.312-.312.878-.878c.055-.055.071-.127.064-.198 2.165 2.288 3.974 4.14 5.665 5.798 5.459 5.323 12.33 11.231 14.416 12.609-.067.097-.07.227.016.314.099.099.257.096.354 0l.051-.051c.023.014.047.027.07.041.041.024.077.054.118.077-.978 21.307-.927 20.574-1.038 21.608zm-35.611-30.02c.1.099.257.096.353 0l.469-.469c.012.034.014.072.041.099l.655.655-1.28 1.28-.878-.878zm8.835-9.408.171.171-1.157 1.157-.101-.101c-.023-.023-.056-.023-.085-.035.382-.405.769-.809 1.172-1.192zm4.947-1.123.377-.377c.098-.098.098-.256 0-.354s-.256-.098-.354 0l-.377.377-.753-.754c1.169-.198 2.198.148 3.072 1.048-.075-.01-.15.003-.208.06l-.878.878zm-1.684-.977.976.976-.941.941-1.33-1.33c.447-.256.881-.459 1.295-.587zm26.701 17.464 1.13 1.13-.72.72c-.04.04-.052.092-.06.144l-1.173-1.173zm.67 2.314-.051-.05c.052-.007.104-.02.144-.06l.72-.72.474.474c.048.048.11.071.173.072-.454.195-.961.295-1.46.284zm-.84-.133c-.403-.1-.815-.241-1.236-.456-.068-.036-.134-.079-.202-.117l.433-.432zm2.441-.206c.004-.003.009-.002.013-.005-.004.002-.009.003-.013.005zm.043-.024c.092-.098.093-.251-.003-.347l-.474-.474.627-.627c.098-.098.098-.256 0-.354s-.256-.098-.354 0l-.627.627-1.141-1.141c.069-.097.072-.229-.015-.316-.097-.097-.255-.099-.354 0l-.008.008c-.083-.021-.17-.016-.235.049s-.07.152-.049.235l-.857.856-.534-.535c-.098-.098-.256-.098-.354 0s-.098.256 0 .354l.535.534-.526.526c-1.803-1.147-8.63-6.946-14.422-12.596-1.729-1.694-3.577-3.587-5.818-5.958-1.826-1.918-4.165-1.78-6.392-.433-1.331.809-2.4 1.951-3.437 3.057-14.26 15.298-13.948 15.147-15.32 15.891-1.704.852-3.12.434-3.734-.342-.678-.842-.516-2.065-.171-2.858.508-1.176 1.285-1.931 5.221-5.791 5.048-4.925 10.487-9.961 16.466-15.048 5.164-4.415 7.028-2.794 12.039 1.805 6.354 5.833 12.701 11.659 19.048 17.495.334.306.676.642.99.996-.041.011-.083.016-.115.048l-.383.383-.411-.411c-.099-.099-.257-.097-.354 0-.098.098-.098.256 0 .354l.411.411-.72.72c-.098.098-.098.256 0 .354.097.097.255.098.354 0l.72-.72 1.449 1.448c.049.049.113.073.177.073.017 0 .03-.016.047-.02-.008.092-.004.183-.025.274-.154.666-.637 1.163-1.251 1.473z"/><path d="m32.551 27.754c-8.443-2.74-14.264 7.274-9.697 13.601 2.294 3.182 6.915 4.441 10.51 2.89 7.154-3.083 7.078-13.934-.813-16.491zm-6.473 2.81.385-.385c.098-.098.098-.256 0-.354-.097-.097-.256-.099-.354 0l-.385.385-.381-.382c.437-.337.91-.62 1.415-.841l1.259 1.259-1.128 1.128zm-1.122-.415.415.415-1.27 1.27c-.097.097-.096.252-.001.35l-.468-.467c.377-.593.821-1.119 1.324-1.568zm-1.589 2.009 1.488 1.488c-.079-.016-.161-.007-.222.055l-1.343 1.343-.741-.741c-.002-.002-.005-.001-.007-.003.171-.703.345-1.272.825-2.142zm-1.009 5.272 1.072 1.072-.638.638c-.207-.546-.354-1.12-.434-1.71zm10.609 5.897c-3.191 1.376-7.277.252-9.303-2.556-.257-.357-.467-.744-.653-1.143l.802-.802c.089.031.151.061.253-.042.07-.07.072-.166.042-.253l.858-.858c.098-.098.098-.256 0-.354s-.256-.098-.354 0l-.829.829-1.375-1.375c-.029-.029-.068-.032-.105-.043-.029-.609.01-1.228.117-1.848l.516.516-.176.176c-.098.098-.098.256 0 .354.097.097.255.098.354 0l.176-.176.484.484c.097.097.255.098.354 0 .098-.098.098-.256 0-.354l-.484-.484 1.343-1.343c.091-.091.088-.23.01-.329.084.027.144.058.247-.044.098-.098.098-.256 0-.354l-1.139-1.139c.104.101.257.091.35-.001l1.27-1.269 1.522 1.522c.099.099.257.096.354 0 .098-.098.098-.256 0-.354l-.358-.358 1.127-1.129.003.003c.097.097.255.098.354 0 .098-.098.098-.256 0-.354l-.003-.003.878-.878c.098-.098.098-.256 0-.354s-.256-.098-.354 0l-.878.878-1.108-1.108c.027-.009.052-.023.079-.032.651-.214 1.322-.319 1.992-.367l1.447 1.447c.097.097.255.098.354 0 .098-.098.098-.256 0-.354l-1.131-1.131c.767.01 1.525.124 2.24.355 7.012 2.277 7.047 11.9.724 14.625z"/><path d="m52.767 56.144c-.123-.057-.273-.005-.333.12-.059.125-.005.274.12.333 1.166.546 1.258 2.418.326 3.297-1.012.955-2.7.808-3.75.108-1.309-.871-1.907-2.372-2.18-3.479-.033-.135-.172-.217-.303-.184-.134.033-.216.169-.184.303.294 1.192.946 2.815 2.389 3.775 1.402.934 3.285.865 4.371-.161 1.194-1.125 1.029-3.413-.456-4.112z"/><path d="m50.916 23.522.933-.933c.098-.098.098-.256 0-.354s-.256-.098-.354 0l-.933.933-1.817-1.816.304-.304c.098-.098.098-.256 0-.354s-.256-.098-.354 0l-.304.304-1.448-1.448.38-.38c.098-.098.098-.256 0-.354s-.256-.098-.354 0l-.38.38-1.265-1.265.264-.265c.098-.098.098-.256 0-.354-.099-.099-.257-.097-.354 0l-.264.265-1.67-1.67.143-.143c.098-.098.098-.256 0-.354-.099-.098-.257-.098-.354 0l-.143.143-.603-.603.271-.271c.098-.098.098-.256 0-.354s-.256-.098-.354 0l-.267.275-.816-.816c-.098-.098-.256-.098-.354 0s-.098.256 0 .354l.816.816-.375.375c-.098.098-.098.256 0 .354.097.097.255.098.353 0l.375-.375.603.603-.816.817c-.098.098-.098.256 0 .354.097.097.255.099.354 0l.816-.817 1.67 1.67-.191.191c-.098.098-.098.256 0 .353.096.096.255.099.354 0l.191-.191 1.265 1.265-.485.485c-.098.098-.098.256 0 .353.097.097.255.098.354 0l.485-.485 1.448 1.448-.522.522c-.098.098-.098.256 0 .354.097.097.255.098.354 0l.522-.522 1.817 1.816-.412.412c-.098.098-.098.256 0 .354.097.097.255.098.353 0l.412-.412 1.08 1.08c.097.097.255.098.354 0 .098-.098.098-.256 0-.354z"/><path d="m16.972 18.007-1.382 1.382-.383-.383c-.098-.098-.256-.098-.354 0s-.098.256 0 .354l.383.383-1.006 1.006-.503-.503c-.099-.099-.257-.097-.354 0-.098.098-.098.256 0 .354l.503.503-.906.906-.442-.442c-.098-.098-.256-.098-.354 0s-.098.256 0 .354l.442.442-1.225 1.225-.223-.223c-.098-.098-.256-.098-.354 0s-.098.256 0 .354l.223.223-.845.846-.543-.542c-.099-.098-.257-.098-.353 0-.098.098-.098.256 0 .354l.543.542-1.342 1.343c-.098.098-.098.256 0 .354.097.097.255.098.353 0l1.343-1.343.41.41c.097.096.255.099.354 0 .098-.098.098-.256 0-.354l-.41-.41.845-.845.294.294c.097.097.255.098.354 0 .098-.098.098-.256 0-.353l-.294-.294 1.225-1.225.206.206c.097.097.255.098.353 0s.098-.256 0-.354l-.206-.206.906-.906.003.003c.096.096.255.099.354 0 .098-.098.098-.256 0-.354l-.003-.003 1.005-1.005.163.163c.097.097.255.098.354 0 .098-.098.098-.256 0-.353l-.163-.163 1.382-1.382c.098-.098.098-.256 0-.354-.097-.101-.256-.101-.353-.004z"/></g></svg>