<svg id="Layer_1" enable-background="new 0 0 66 66" height="512" viewBox="0 0 66 66" width="512" xmlns="http://www.w3.org/2000/svg"><g><path d="m23.785 63.036c.266-.018 20.334-1.334 20.532-1.512 4.348-3.889 8.544-7.78 12.107-12.629.054-.074.087-.162.095-.253 1.037-12.123 2.004-24.998 1.463-37.426-.289-6.609-2.549-8.358-8.817-8.358-.009 0-.019 0-.027 0-6.563.005-25.591.732-28.578.434-9.597-.971-12.307 3.646-12.542 12.452-.31 11.642-.156 23.443.457 35.077.48 9.082 3.259 13.04 15.31 12.215zm23.404-14.916c.01.017.007.039.022.054l.644.644-1.119 1.12-1.114-1.114c.002-.066-.021-.132-.071-.182s-.116-.072-.182-.071l-.294-.294c.633-.178 1.371-.199 2.114-.157zm.732.056c.043.004.086.007.129.012l.392.041-.234.234zm-3.364.29.407.407-.877.877-.462-.462c.215-.341.48-.605.932-.822zm-1.168 1.293.345.345-.439.439c-.098.098-.098.256 0 .354.097.097.255.098.354 0l.439-.439 1.088 1.088c-.098-.094-.252-.094-.349.002l-1.149 1.149-.486-.487c-.045-.892-.055-1.75.197-2.451zm-.065 3.291-.086.086-.009-.181zm.193 5.525.422.422-.308.308c-.046.046-.065.105-.069.165zm.262 2.088-.154.011-.06-1.176c.004.058.022.117.067.162.097.097.255.098.354 0l.308-.308.124.124c.097.097.255.098.354 0 .098-.098.098-.256 0-.354l-.124-.124 1.332-1.332c.098-.098.098-.256 0-.353-.098-.098-.256-.098-.354 0l-1.332 1.331-.814-.814-.077-1.504.183-.183.955.955c.097.097.255.098.354 0 .098-.098.098-.256 0-.354l-.955-.955.705-.705c.098-.098.098-.256 0-.354s-.256-.098-.354 0l-.705.705-.047-.047c-.052-.052-.12-.072-.187-.069l-.078-1.513.405-.405.835.835c.099.099.257.096.353 0 .098-.098.098-.256 0-.353l-.835-.835 1.149-1.149c.096-.096.096-.251.002-.348l.024.024c.097.097.255.098.354 0 .098-.098.098-.256 0-.354l-1.119-1.119.877-.877 1.073 1.072c.042.042.097.056.15.062.012.03.012.063.036.087.097.097.255.098.354 0l1.278-1.278.536.536c.097.097.255.098.354 0 .098-.098.098-.256 0-.354l-.536-.536.52-.52 1.381.146.132.133-.7.7c-.098.098-.098.256 0 .354.097.097.256.098.354 0l.7-.7.812.812c.097.097.255.098.354 0 .08-.08.077-.195.027-.289l.752-.752 2.24.236c-3.369 4.433-7.291 8.09-11.357 11.729zm8.028-11.584-.504-.504.04-.04.912.096zm-42.789-33.308c.216-8.126 2.349-12.395 11.442-11.485 3.09.311 22.039-.423 28.678-.428h.028c5.877 0 7.56 1.487 7.816 7.401.532 12.172-.395 24.796-1.411 36.717l-7.416-.783c-4.876-.518-6.157 1.289-5.961 5.109l.433 8.439-18.911 1.295c-11.381.78-13.785-2.616-14.243-11.27-.611-11.605-.763-23.381-.455-34.995z"/><path d="m19.165 19.919h.043c2.89 0 4.223-3.348 2.381-5.147-1.114-1.088-2.567-.945-3.567-1.737-.34-.27-.65-.761-.527-1.201.328-1.174 3.313-1.285 5.34-.276.246.125.548.023.67-.225.123-.247.023-.547-.225-.67-2.206-1.101-6.145-1.26-6.748.901-.247.885.259 1.769.869 2.254.879.696 2.808 1.003 3.489 1.669 1.263 1.234.198 3.524-1.712 3.433-.834-.011-1.661-.474-2.157-1.208-.155-.229-.468-.29-.693-.135-.229.154-.29.465-.135.693.675 1.003 1.814 1.635 2.972 1.649z"/><path d="m26.065 16.458h.555c-.271.745-.536 1.493-.814 2.232-.233.617.703.972.935.352.322-.856.633-1.721.947-2.584h3.662l1.079 2.762c.241.619 1.174.255.932-.363l-.937-2.398h.252c.276 0 .5-.224.5-.5s-.224-.5-.5-.5h-.643l-2.178-5.577c-.076-.196-.286-.335-.479-.318-.211.006-.396.143-.462.343-.614 1.848-1.265 3.703-1.93 5.553h-.92c-.276 0-.5.224-.5.5s.225.498.501.498zm3.36-4.929 1.535 3.93h-2.905c.468-1.309.927-2.621 1.37-3.93z"/><path d="m36.73 19.735 4.23.128h.015c.27 0 .491-.214.5-.485.008-.275-.209-.506-.485-.515l-3.745-.113v-8.799c0-.276-.224-.5-.5-.5s-.5.224-.5.5v9.284c0 .27.215.491.485.5z"/><path d="m45.49 14.39c-.276 0-.5.224-.5.5s.224.5.5.5h3.959c.276 0 .5-.224.5-.5s-.224-.5-.5-.5z"/><path d="m44.155 19.729h5.474c.276 0 .5-.224.5-.5s-.224-.5-.5-.5h-4.773v-7.878h4.377c.276 0 .5-.224.5-.5s-.224-.5-.5-.5h-4.877c-.276 0-.5.224-.5.5v8.488c-.119.091-.2.228-.2.39-.001.276.222.5.499.5z"/><path d="m15.62 24.702c0 .276.224.5.5.5h12.752c.276 0 .5-.224.5-.5s-.224-.5-.5-.5h-12.752c-.277 0-.5.223-.5.5z"/><path d="m15.513 31.817c0 .276.224.5.5.5h34.318c.276 0 .5-.224.5-.5s-.224-.5-.5-.5h-34.318c-.276 0-.5.223-.5.5z"/><path d="m16.545 38.645c-.276 0-.5.224-.5.5s.224.5.5.5h34.105c.276 0 .5-.224.5-.5s-.224-.5-.5-.5z"/><path d="m36.423 45.336h-19.985c-.276 0-.5.224-.5.5s.224.5.5.5h19.985c.276 0 .5-.224.5-.5s-.223-.5-.5-.5z"/><path d="m36.234 53.62h-20.008c-.276 0-.5.224-.5.5s.224.5.5.5h20.008c.276 0 .5-.224.5-.5s-.224-.5-.5-.5z"/><path d="m35.612 28.286 1.536-1.536.66.659c.096.096.255.099.354 0 .098-.098.098-.256 0-.353l-.66-.66 1.14-1.139 1.104 1.105c.233.233.589-.118.354-.354l-1.104-1.105 1.253-1.253c.098-.098.098-.256 0-.354s-.256-.098-.354 0l-1.253 1.253-.57-.57c-.097-.098-.255-.098-.354 0-.098.098-.098.256 0 .354l.57.57-1.14 1.14-1.273-1.272c-.098-.098-.256-.098-.354 0s-.098.256 0 .354l1.273 1.272-1.536 1.536c-.098.098-.098.256 0 .354.097.096.256.097.354-.001z"/><path d="m11.896 40.407 1.097-1.097.439.439c.097.097.255.098.354 0 .098-.098.098-.256 0-.354l-.439-.439.832-.832.227.227c.097.097.255.098.354 0 .098-.098.098-.256 0-.354l-.227-.227 1.316-1.316c.098-.098.098-.256 0-.354s-.256-.098-.354 0l-1.316 1.316-.438-.438c-.098-.098-.256-.098-.353 0-.098.098-.098.256 0 .354l.438.438-.832.832-.482-.482c-.098-.098-.256-.098-.354 0s-.098.256 0 .354l.482.482-1.097 1.097c-.098.098-.098.256 0 .354.097.097.255.098.353 0z"/><path d="m12.248 12.562 1.096-1.097.484.484c.097.096.255.099.354 0 .098-.098.098-.256 0-.354l-.484-.484.964-.964.369.369c.099.099.257.096.354 0 .098-.098.098-.256 0-.354l-.369-.369.88-.88c.098-.098.098-.256 0-.354s-.256-.098-.354 0l-.88.88-.57-.57c-.097-.097-.255-.099-.354 0-.098.098-.098.256 0 .354l.57.57-.964.964-.658-.658c-.099-.099-.257-.097-.354 0-.098.098-.098.256 0 .354l.658.657-1.096 1.096c-.098.098-.098.256 0 .354.097.099.255.1.354.002z"/><path d="m43.252 43.567-1.053 1.053-.437-.438c-.098-.098-.256-.098-.354 0s-.098.256 0 .354l.438.438-1.535 1.535-.569-.569c-.098-.098-.256-.098-.353 0-.098.098-.098.256 0 .354l.569.569-1.36 1.36c-.098.098-.098.256 0 .354.097.097.255.098.353 0l1.36-1.36.406.406c.097.097.255.098.354 0 .098-.098.098-.256 0-.354l-.406-.406 1.535-1.535.263.263c.097.097.255.098.354 0 .098-.098.098-.256 0-.354l-.263-.263 1.053-1.053c.098-.098.098-.256 0-.354-.1-.098-.258-.098-.355 0z"/></g></svg>