<svg id="Layer_1" enable-background="new 0 0 66 66" height="512" viewBox="0 0 66 66" width="512" xmlns="http://www.w3.org/2000/svg"><g><path d="m6.127 25.264c2.031 1.039 2.322 1.187 31.225 1.492.529 2.083 1.677 3.489 4.181 4.485-.435 1.283-.671 2.51-.707 3.67-4.394-.784-11.333-1.881-9.957 2.218-.973.689-6.475 3.673-8.472 4.774-3.023 1.718-4.203 3.493-1.584 7.968.01.017 4.493 7.693 4.51 7.701 1.777 3.267 3.717 5.463 8.83 3.347 4.582-1.886 8.228-5.118 9.387-6.98.433.314.905.484 1.437.389 1.455-.278 1.684-2.083 1.952-3.349 1.543-7.261 1.894-8.88 2.032-9.687 1.404-1.313 3.249-3.772 4.587-6.714 5.937 1.41 8.317-.78 8.753-6.282.483-6.057.568-12.155.251-18.124-.27-5.468-2.582-6.445-6.806-5.718-3.246.569-6.112 1.075-9.561 1.67-2.949.519-7.642 1.297-9.086 5.658-4.037.415-5.399.675-9.29 2.223-3.906 1.557-5.227 1.936-11.415 1.725-3.136-.109-6.38-.22-9.38.929-5.381 2.049-4.338 6.849-.887 8.605zm12.404.184.124-.124.129.129c-.085-.002-.168-.004-.253-.005zm4.029-.701.798.798c-.52-.01-1.043-.021-1.564-.032zm3.051.741c.099.099.257.096.354 0 .098-.098.098-.256 0-.354l-.232-.232 1.107-1.107 1.039 1.039-.777.777c-.683-.012-1.359-.021-2.044-.034l.322-.322zm2.858-.063c.097.097.255.098.354 0 .098-.098.098-.256 0-.354l-.236-.236 1.277-1.277 1.073 1.073-.638.638c-.098.098-.098.256 0 .354.029.029.068.031.104.043-.862-.013-1.735-.029-2.603-.043l.435-.435zm3.193-3.667 1.073 1.073-1.446 1.446-1.073-1.073zm2.445.408 1.344 1.344-.665.665-1.344-1.344zm.326 2.363-1.012 1.012c-.045.045-.065.105-.068.165-.937-.012-1.868-.023-2.812-.037.038-.011.079-.015.11-.045l.638-.638.537.537c.099.099.257.097.354 0 .098-.098.098-.256 0-.354l-.537-.537 1.447-1.446zm.353.354.852.852c-.558-.007-1.122-.014-1.683-.021zm2.183-6.665c.013.096.021.195.031.293l-.162-.162zm.078 3.504c-.004.141-.007.283-.01.425l-.606-.606.637-.637c-.007.27-.014.541-.021.818zm-11.157 28.086.899.899-.49.49c-.098.098-.098.256 0 .354.097.097.255.098.354 0l1.354-1.354c.098-.098.098-.256 0-.354s-.256-.098-.354 0l-.511.511-.832-.832c.369-.253.747-.489 1.139-.676.008.012.005.027.016.038l.791.791c-.029.087-.027.182.042.251.102.102.164.072.251.042.146.146.288.271.457.103.098-.098.098-.256 0-.354l-.073-.073.723-.723c.073-.073.073-.174.037-.265 1.425.511 1.938 1.974 1.583 3.109-.378 1.178-1.495 1.925-3.857 3.823-.449.362-.946.762-1.476 1.068-.183-.311-.365-.623-.548-.934l.034-.034c.082.017.136.033.223-.054.062-.062.07-.144.054-.223l.957-.957c.098-.098.098-.256 0-.354s-.256-.098-.354 0l-.918.918-.985-.985c-.193-.33-.388-.66-.581-.991l.358-.358.437.437c.097.097.255.098.354 0 .098-.098.098-.256 0-.354l-.437-.437.917-.917.366.366c.097.097.255.098.354 0 .098-.098.098-.256 0-.354l-.412-.412c.006-.071-.01-.143-.065-.197-.054-.055-.126-.071-.198-.065l-.411-.411c.276-.174.542-.353.802-.532zm2.049-1.159c.434-.141.715-.213 1.366-.082 0 .001-.001 0-.002.001l-.723.723zm-4.829 2.963.721.721-.266.266-.544-.93c.03-.02.06-.038.089-.057zm1.556-.999c.005.006.003.015.009.021l.428.428-.917.917-.644-.644c.525-.339.368-.242 1.124-.722zm9.106 9.383c-4.518 1.867-5.88-.007-7.325-2.48.592-.341 1.123-.763 1.6-1.148 2.412-1.938 3.698-2.788 4.183-4.298 0-.001 0-.002.001-.003.76-2.423-1.296-4.928-3.975-4.533-1.098.171-1.521.476-5.735 3.278l-.846-1.446c-2.344-4.01-1.289-5.169 1.211-6.591 1.288-.709 7.602-4.158 8.408-4.718.405.679 1.006 1.407 11.272 14.886.073.095.151.192.233.289-.95 1.671-4.474 4.89-9.027 6.764zm12.18-9.223c-.449 2.104-.886 3.767-2.591 1.563l-10.677-14.018c-1.799-2.394-1.102-3.167 1.5-3.167 1.515 0 3.74.262 6.657.782.038.512.117 1.009.239 1.491.154.612.444 1.264.816 1.892-.711.556-1.097 1.432-1.068 2.552.053 1.992 1.872 3.015 3.536 2.203 1.399-.682 2.444-2.747 1.826-4.1-.453-.996-1.785-1.66-3.411-1.115-.332-.554-.593-1.132-.73-1.677-.086-.342-.141-.696-.18-1.056.632.119 1.284.245 1.975.387 2.893.588 5.026.513 3.932 5.646-.603 2.867-1.214 5.741-1.824 8.617zm-.616-9.506c-.716-.288-1.396-.852-1.96-1.548 1.005-.214 1.687.19 1.904.667.129.283.117.6.056.881zm-.389.92c-.221.359-.548.755-1.022.986-1.002.49-2.064-.056-2.098-1.331-.02-.757.2-1.321.632-1.691.685.894 1.545 1.648 2.488 2.036zm4.146-2.491c-.11-3.648-3.083-3.762-5.049-4.167-.77-.157-1.509-.301-2.227-.437.016-1.1.24-2.276.658-3.515.526.171 1.068.326 1.619.473 6.228 1.686 7.466 2.009 8.466 2.278-.91 1.964-2.071 3.767-3.467 5.368zm-2.734-32.585c2.825-.488 5.735-.999 9.56-1.67 3.646-.632 5.396-.045 5.637 4.783.314 5.927.23 11.98-.249 17.993-.405 5.102-2.245 6.844-8.634 5.107-2.769-.739-5.549-1.489-8.318-2.24-.518-.139-1.028-.283-1.521-.442 1.329-3.251 3.672-6.028 6.677-7.858.261-.159.561-.322.877-.474 1.639 2.189 4.828 2.206 6.617.666 1.702-1.465 2.074-4.18.83-6.05 0-.001 0-.001 0-.001-1.63-2.449-5.002-2.563-7.135-.74-1.421 1.215-1.672 3.413-.824 5.262-.319.158-.622.323-.885.484-3.2 1.947-5.69 4.907-7.098 8.371-2.12-.85-3.218-1.989-3.659-4.144-.273-1.356-.23-2.909-.188-4.41.018-.652.034-1.286.028-1.9.042-.078.042-.163-.005-.24-.012-.592-.047-1.167-.131-1.717-1.111-7.262 1.185-9.506 8.421-10.78zm4.991 9.834c1.684-1.439 4.36-1.404 5.652.534.957 1.441.66 3.611-.65 4.739-.268.231-.578.401-.904.536-.663-1.762-2.704-2.334-4.648-1.685-.686-1.453-.522-3.207.55-4.124zm.778 4.85c.965-.065 1.953.315 2.343 1.218-1.111.134-2.276-.173-3.1-1.084.246-.068.499-.116.757-.134zm-35.766-5.064c6.362.221 7.829-.204 11.819-1.795 4.29-1.705 5.292-1.701 8.635-2.119-.306 1.378-.13 3.386.069 4.778l-.4.4-.265-.265c-.098-.098-.256-.098-.354 0s-.098.256 0 .354l.265.265-.265.265c-.098.098-.098.256 0 .354.097.097.255.098.354 0l.265-.265.571.571c.013.308.019.624.018.947-.016.01-.037.007-.051.021l-.945.946-.536-.536c-.097-.097-.255-.099-.353 0-.098.098-.098.256 0 .354l.536.537-.536.537c-.098.098-.098.256 0 .354.096.096.255.099.353 0l.536-.537.943.944c-.02 1.268.05 2.339.131 2.916-.29-.003-.587-.008-.878-.011-.008-.049-.019-.1-.057-.138l-1.076-1.076.666-.665.607.607c.097.097.255.098.354 0 .098-.098.098-.256 0-.354l-.607-.607.197-.197c.098-.098.098-.256 0-.354s-.256-.098-.354 0l-.198.198-1.401-1.401c-.002-.061-.023-.123-.07-.17s-.109-.069-.17-.071l-.05-.05c-.099-.099-.257-.097-.354 0-.095.095-.094.246-.004.344l-.668.668-1.073-1.073.979-.979c.098-.098.098-.256 0-.354s-.256-.098-.354 0l-1.074 1.074c-.041.011-.083.016-.115.048s-.037.075-.048.115l-1.541 1.541-.095-.095c-.097-.097-.255-.099-.354 0-.098.098-.098.256 0 .354l.095.095-1.277 1.277-1.039-1.039 1.538-1.538c.098-.098.098-.256 0-.354s-.256-.098-.354 0l-2.998 2.998-.91-.91c-.097-.097-.255-.099-.354 0-.098.098-.098.256 0 .353l.91.911-.663.663c-.184-.003-.371-.008-.556-.011.053-.095.056-.212-.025-.293l-.868-.868 1.573-1.573c.098-.098.098-.256 0-.354s-.256-.098-.354 0l-1.667 1.667c-.041.011-.084.016-.117.048-.032.032-.037.076-.048.117l-.937.936c-.006-.007-.003-.018-.01-.025l-.961-.961c-.098-.098-.256-.098-.354 0s-.098.256 0 .354l.892.892c-.486-.01-.97-.019-1.458-.03-.01-.016-.007-.037-.021-.051l-.445-.445 2.452-2.452c.098-.098.098-.256 0-.354s-.256-.098-.354 0l-2.453 2.452-.163-.163c-.098-.098-.256-.098-.354 0s-.098.256 0 .354l.163.163-.462.462c-7.477-.167-9.33-.073-11.258-1.059-2.701-1.376-3.756-5.048.792-6.778 2.821-1.079 5.826-.972 8.993-.864z"/><path d="m29.402 40.644c-.35.206-.711.392-1.071.587l-.317-.281c-.104-.092-.263-.081-.354.021-.091.104-.082.262.021.354l.183.161s-1.279.698-1.354.738c-.11-.087-.22-.178-.302-.291-.081-.112-.237-.136-.35-.057-.111.081-.137.237-.057.35.067.093.144.18.226.26-.479.265-.943.553-1.407.848l-.427-.334c-.107-.085-.267-.066-.351.044-.085.108-.065.266.044.351l.286.223c-.479.324-.793.511-1.283 1.02-.166-.179-.319-.37-.447-.577-.073-.116-.226-.152-.345-.081-.117.073-.153.227-.081.345.154.249.337.482.541.696-.808 1.083-.693 2.25-.122 2.901.09.102.247.115.353.023.103-.091.114-.248.022-.353-.504-.575-.392-1.524.13-2.242.106.088.201.189.314.266.11.075.267.051.348-.066.077-.114.048-.27-.066-.348-.099-.067-.182-.155-.274-.232.514-.529.826-.693 1.329-1.026l.326.255c.111.085.265.065.352-.043.085-.109.065-.267-.043-.352l-.184-.143c.474-.295.947-.582 1.436-.85.157.087.32.16.493.203.128.032.268-.045.303-.184.032-.134-.049-.27-.184-.303-.018-.004-.032-.017-.05-.022.241-.129 1.147-.627 1.222-.667l.517.456c.1.089.259.084.353-.022.091-.104.081-.261-.022-.353l-.381-.337c.31-.17.622-.329.926-.508.119-.07.158-.224.089-.343-.07-.118-.223-.159-.342-.087z"/></g></svg>